<svg width="48" height="48" viewBox="0 0 48 48" fill="none" xmlns="http://www.w3.org/2000/svg">
<g clip-path="url(#clip0_2588_795)">
<path d="M48.5 48.0588L0.5 0.0585938H48.5V48.0588Z" fill="black"/>
<path fill-rule="evenodd" clip-rule="evenodd" d="M13.7921 41.3523C13.7301 41.2767 13.6067 41.2101 13.559 41.243C13.3989 41.3537 13.2068 41.503 13.2252 41.5566C13.2324 41.5772 13.1935 41.5235 13.1031 41.3985C12.8237 41.0121 12.0518 39.9446 10.6236 38.2897C8.73354 36.0997 8.32529 35.4325 7.78296 34.4701C7.41361 33.8147 7.34453 33.616 7.22204 33.2637C7.16467 33.0987 7.09558 32.9 6.97844 32.6049C6.69782 31.898 6.73396 31.5881 6.77719 31.2176C6.79053 31.1032 6.80454 30.983 6.81013 30.8436C6.8143 30.7393 6.82248 30.6159 6.83153 30.4795C6.87377 29.8424 6.93483 28.9213 6.69477 28.3406C6.4033 27.6354 6.37998 27.5677 6.63693 27.3714C6.78168 27.2607 6.7468 27.0472 6.719 26.8771C6.69745 26.7452 6.68016 26.6393 6.75408 26.6276C6.92338 26.6008 6.92346 26.4597 6.77771 26.1307C6.63196 25.8016 6.56207 25.5044 6.52146 25.0565C6.51031 24.9336 6.48202 24.8248 6.45744 24.7303C6.39245 24.4803 6.35344 24.3303 6.72618 24.2843C6.88011 24.2653 7.05868 24.2333 7.25812 24.1975C7.72426 24.1138 8.3044 24.0096 8.95033 24.0041C9.87263 23.9962 10.3338 23.9688 10.5908 23.6783C10.6749 23.5832 10.7478 23.4706 10.818 23.3621C10.9623 23.1392 11.0953 22.9336 11.2917 22.9331C11.5835 22.9324 13.854 23.3522 14.2158 23.5546C14.3671 23.6393 14.6205 23.8719 14.8982 24.1269C15.2845 24.4814 15.7179 24.8793 15.9895 24.9827C16.4564 25.1603 20.0571 26.71 20.2264 26.8244C20.3956 26.9388 21.0546 27.9574 21.2994 28.7624C21.4403 29.2259 21.3376 29.232 21.2841 29.2351C21.2447 29.2374 21.2321 29.2382 21.3632 29.4191C21.4763 29.5752 21.5395 29.6366 21.5933 29.6889C21.6818 29.7751 21.7449 29.8364 21.964 30.2555C21.9851 30.2959 22.0279 30.333 22.0697 30.3609C22.2037 30.4505 22.4391 30.6876 22.6815 31.1739C22.7837 31.379 22.8571 31.5367 22.9197 31.6714C23.0821 32.0206 23.1728 32.2155 23.5095 32.6833C23.7202 32.976 23.9024 33.301 24.0822 33.622C24.3007 34.012 24.516 34.396 24.7751 34.7092C24.9427 34.9118 25.0678 35.0382 25.1667 35.1382C25.3465 35.3199 25.4398 35.4142 25.5451 35.72C25.6129 35.9169 25.6203 35.9872 25.6258 36.0402C25.6337 36.1147 25.6379 36.1549 25.8015 36.4647C25.9565 36.7582 26.0217 36.9625 26.0439 37.0824C26.0547 37.141 26.1205 37.2197 26.1802 37.2732C26.2651 37.3493 26.3468 37.476 26.3437 37.6623C26.3413 37.8037 26.3706 37.9057 26.4009 38.0114C26.4476 38.1746 26.4969 38.3467 26.4365 38.686C26.337 39.2453 26.3545 39.2961 26.5177 39.77C26.6808 40.2439 26.7157 40.5807 26.7795 41.3316C26.8171 41.7742 26.7431 42.2859 26.6831 42.7003C26.6414 42.9888 26.6065 43.2303 26.6207 43.3685C26.633 43.4869 26.6741 43.6483 26.7133 43.8025C26.7857 44.0869 26.8519 44.347 26.7195 44.268C26.6215 44.2095 26.5047 43.9721 26.408 43.7298C26.367 43.6269 26.0281 43.413 25.9464 43.4344C25.8146 43.4688 25.6816 43.4933 25.6409 43.5005C25.6324 43.502 25.6232 43.5018 25.6128 43.4997C25.494 43.4749 25.2559 43.3874 24.9988 43.1992C24.9053 43.1307 24.7932 43.1509 24.8241 43.2408L25.0561 43.9144C24.9978 43.7451 24.8146 43.4866 24.5483 43.8064C24.2252 44.1944 21.6812 44.8785 20.8589 44.7328C20.8174 44.7255 20.7727 44.6895 20.7487 44.6479C20.2447 43.7745 19.1546 41.9081 18.5142 40.8924C17.9375 39.9778 17.2888 39.1267 16.9396 38.6947C16.8824 38.624 16.7902 38.6034 16.7737 38.6572C16.5657 39.3359 16.2215 40.6882 16.2606 41.5115C16.2986 42.3117 16.3787 43.0499 16.4232 43.3927C16.4294 43.4403 16.3912 43.4625 16.3357 43.4389C16.0368 43.3119 15.4633 42.9983 14.9409 42.4859C14.7423 42.2911 14.5641 42.1213 14.4083 41.9728C14.1247 41.7025 13.9153 41.5029 13.7921 41.3523ZM10.1359 31.7543C10.373 32.2544 10.9207 33.449 11.2145 34.2267C11.3226 34.5129 11.4221 34.762 11.5072 34.975C11.7113 35.4856 11.8327 35.7894 11.7914 35.9024C11.7733 35.952 11.7523 35.9964 11.7318 36.034C11.7034 36.0861 11.5969 36.0358 11.5586 35.955C11.3942 35.6079 11.1308 35.0886 10.9281 34.809C10.7409 34.5507 10.4593 34.2885 10.2576 34.1194C10.1855 34.059 10.1644 33.9682 10.2144 33.9431C10.3737 33.8631 10.5437 33.6925 10.4444 33.4042C10.3831 33.2262 10.351 33.0829 10.3244 32.9639C10.2825 32.7772 10.254 32.6499 10.1472 32.541C10.0875 32.4802 10.0367 32.4449 9.99763 32.4179C9.92215 32.3656 9.89085 32.3439 9.92554 32.2272C9.95277 32.1356 9.93938 32.0396 9.92659 31.9478C9.91466 31.8623 9.90325 31.7805 9.92583 31.7096C9.9726 31.5627 10.0621 31.5974 10.1359 31.7543ZM22.5846 36.7867L22.6074 36.8209L22.615 36.8324L22.615 36.8324C22.7623 37.0541 22.8278 37.1527 22.8751 37.2501C22.9131 37.3282 22.9394 37.4055 22.9868 37.5448L22.9868 37.5448C22.9987 37.58 23.012 37.6191 23.0272 37.6631C23.1787 38.1032 23.546 38.9813 23.4879 38.5297C23.4297 38.0781 23.2725 37.4329 23.1675 37.2694C23.1306 37.2119 23.0871 37.1762 23.0437 37.1407C22.9639 37.0753 22.8844 37.0102 22.8467 36.809C22.8019 36.5702 22.7812 36.5408 22.6519 36.3568L22.6519 36.3568C22.6131 36.3017 22.5646 36.2326 22.5027 36.1398C22.2344 35.7377 22.0516 35.5576 22.1701 35.9279C22.2722 36.3165 22.3026 36.3621 22.5846 36.7867Z" fill="black"/>
</g>
<defs>
<clipPath id="clip0_2588_795">
<rect width="48" height="48" fill="white" transform="translate(0.5 0.0585938)"/>
</clipPath>
</defs>
</svg>
