<svg width="48" height="48" viewBox="0 0 48 48" fill="none" xmlns="http://www.w3.org/2000/svg">
<g clip-path="url(#clip0_2587_756)">
<path d="M48.5 48.0002L0.5 0H48.5V48.0002Z" fill="black"/>
<path fill-rule="evenodd" clip-rule="evenodd" d="M8.66456 20.2156C8.65998 20.2244 8.65542 20.2223 8.66332 20.2165C8.66373 20.2162 8.66414 20.2159 8.66456 20.2156V20.2156ZM8.66456 20.2156C8.70757 20.186 8.83135 20.2056 9.1214 20.4033C9.6201 20.7433 11.4158 22.0787 11.4914 22.2519C11.567 22.4252 11.6911 22.7355 11.613 22.8243C11.5943 22.8457 11.5813 22.8677 11.569 22.8885C11.5303 22.9542 11.4991 23.0071 11.3177 22.9848C11.2669 22.9786 11.1273 22.9592 10.9373 22.9329C10.234 22.8353 8.83885 22.6417 8.6906 22.6623C8.62619 22.6712 8.56366 22.6889 8.50916 22.7088C8.44071 22.7338 8.47419 22.8327 8.55931 22.8617C8.84776 22.96 9.32043 23.0967 9.8476 23.1814C9.88792 23.1879 9.92684 23.1942 9.96439 23.2002C10.7313 23.3231 10.9453 23.3574 11.2674 23.5689C11.3219 23.6047 11.3848 23.6424 11.4522 23.6827C11.8025 23.8922 12.2717 24.173 12.2873 24.6287C12.3022 25.0637 12.0138 25.2408 11.6023 25.4934C11.4998 25.5563 11.3897 25.6239 11.2748 25.7013C10.6984 26.0896 9.93315 26.6843 9.69841 27.9508C9.67779 28.062 9.65852 28.1648 9.64055 28.2607C9.45397 29.256 9.40817 29.5002 9.45656 30.6428C9.47702 31.126 9.51371 31.5769 9.54714 31.9877C9.60036 32.642 9.64529 33.1943 9.60314 33.6121C9.53452 34.2923 9.66943 36.1125 9.86894 37.4158C10.0286 38.4586 10.0929 38.5911 10.1051 38.527C9.90845 39.7599 9.51914 42.354 9.53527 42.8676C9.55542 43.5095 9.84302 44.3154 9.90875 44.0776C9.91029 44.072 9.9118 44.0665 9.91328 44.0611C9.93693 43.9744 10.1011 44.0099 10.1428 44.1117C10.4235 44.797 10.8265 45.6874 10.9528 45.6158V45.6158C11.0206 45.5774 11.3472 45.5861 11.4405 45.6248C11.557 45.6731 11.6963 45.6919 11.8504 45.6441C11.9398 45.6164 12.01 45.5961 12.0649 45.5815C12.1374 45.5623 12.3693 45.5945 12.4543 45.6107C12.6269 45.6434 12.8288 45.6641 12.9677 45.6327C13.0392 45.6166 13.1683 45.665 13.228 45.7368C13.3844 45.9251 13.663 46.1097 14.0553 46.0056C14.0697 46.0018 14.0863 46.0017 14.1032 46.0054C14.3251 46.0539 14.7317 46.083 14.8652 45.8764C14.885 45.8459 14.923 45.8306 14.9666 45.8366C15.0114 45.8427 15.0619 45.8434 15.0998 45.8293C15.1293 45.8183 15.1631 45.8104 15.1999 45.821C15.4276 45.8868 15.7921 45.9197 15.7995 45.6207L15.512 41.3014C15.5096 41.264 15.5305 41.2358 15.5678 41.2344C15.6937 41.2297 15.9361 41.2538 16.2352 41.3784C16.4961 41.4871 16.7331 41.5144 16.9515 41.5396C17.1069 41.5576 17.2527 41.5744 17.391 41.6187C17.5614 41.6732 17.7343 41.7151 17.9097 41.7576C18.0768 41.7982 18.2463 41.8392 18.4184 41.8924C18.771 42.0013 18.9573 42.0569 19.1563 42.0814C19.2114 42.0881 19.265 42.1022 19.313 42.1149C19.4141 42.1415 19.4896 42.1613 19.4985 42.0911C19.5033 42.0536 19.517 42.0177 19.5554 42.0125C19.687 41.9946 19.8947 42.0057 20.0049 42.1528V42.1528C20.0623 42.2294 20.1592 42.2246 20.1063 42.1459C20.0772 42.1025 20.0409 42.0599 19.9962 42.0205C19.7578 41.8109 19.4827 41.7935 19.3669 41.7957C19.3158 41.7966 19.1578 41.7749 18.9789 41.7424C18.8656 41.7218 18.8483 41.6155 18.9484 41.5959C19.0332 41.5793 19.0906 41.5494 19.0907 41.4995C19.0909 41.4375 19.0767 41.3834 19.0651 41.3394C19.043 41.2553 19.0305 41.2077 19.1457 41.2111C19.3213 41.2162 19.58 41.248 19.6393 41.4356C19.6076 41.317 19.4461 41.0742 19.0538 41.0522C18.793 41.0376 18.7645 41.0841 18.7385 41.1262C18.7157 41.1634 18.6949 41.1972 18.5196 41.1834C18.4573 41.1785 18.3904 41.1748 18.3212 41.171C17.9748 41.152 17.5715 41.1299 17.4 40.9311C17.3867 40.9158 17.3738 40.9009 17.361 40.8863C17.1758 40.6732 17.039 40.5161 16.8341 39.9107C16.7363 39.6214 16.5055 38.9685 16.2814 38.3346C16.0448 37.6654 15.8157 37.0173 15.7581 36.8398C15.7517 36.8201 15.7518 36.8013 15.7577 36.7854C15.8374 36.5686 15.9908 36.1044 16.0428 35.7706C16.0451 35.7556 16.0515 35.7427 16.0621 35.7334C16.2143 35.5988 16.5939 35.3498 17.0227 35.3265C17.5784 35.2964 18.5967 34.7984 18.9066 33.8855C19.1331 33.2183 19.2583 32.805 19.3028 32.6457C19.3097 32.6213 19.3287 32.6052 19.3533 32.5977C19.4961 32.5546 19.7437 32.3928 19.8433 32.0001C19.9804 31.4595 20.0235 30.8417 19.7674 29.7282C19.517 28.6394 18.9751 27.9223 18.4363 27.4293C18.4128 27.4078 18.3965 27.3807 18.3909 27.3537C18.297 26.9049 18.0113 25.91 17.5433 25.1921C17.414 24.9937 17.2822 24.7709 17.1435 24.5366C16.6346 23.6765 16.0336 22.661 15.1275 22.1245C13.9745 21.4419 13.1824 21.1807 12.3645 21.1622C12.2305 21.1592 12.1181 21.1575 12.022 21.1561C11.5313 21.1487 11.4644 21.1477 11.1107 21.0083C10.8323 20.8986 10.6761 20.811 10.4402 20.6787C10.3175 20.6099 10.1733 20.529 9.97917 20.4266C9.43949 20.1421 8.81131 19.9356 8.66456 20.2156ZM15.5737 39.7691C15.5008 39.7874 15.3944 39.7127 15.3889 39.6324L15.1895 36.7506C15.1884 36.7334 15.1899 36.7133 15.2064 36.7112C15.3719 36.69 15.9711 38.5786 16.1123 39.0678C16.2069 39.3958 16.3661 39.9013 16.4736 40.2378C16.4921 40.2956 16.4237 40.3153 16.3792 40.2648V40.2648C16.3686 40.2529 16.3619 40.2389 16.3598 40.2253C16.3251 40.0061 16.2038 39.8963 15.9549 39.7863C15.8292 39.7307 15.6874 39.7407 15.5737 39.7691ZM15.9986 40.117C15.9595 40.1127 15.92 40.0782 15.9118 40.0396V40.0396C15.9042 40.0041 15.9263 39.9778 15.9626 39.9834C16.0144 39.9915 16.057 40.004 16.0917 40.0191C16.1735 40.0547 16.1086 40.131 16.0277 40.1205C16.0178 40.1192 16.008 40.118 15.9986 40.117ZM15.5614 40.6767C15.5069 40.6698 15.4663 40.7028 15.4714 40.7553L15.4852 40.8999C15.4901 40.9515 15.5372 41.0037 15.5916 41.0175C15.7967 41.0694 16.0923 41.1372 16.1416 41.121C16.2141 41.0971 16.5712 40.8622 16.5625 40.7299C16.5537 40.5977 16.5466 40.564 16.4527 40.4869C16.3588 40.4098 16.2449 40.3302 16.0857 40.3107C15.9658 40.296 15.9289 40.31 15.9141 40.3384C15.9045 40.3569 15.9126 40.3835 15.9245 40.4078C15.9792 40.5196 16.0222 40.6894 15.8568 40.6925C15.7406 40.6947 15.6364 40.6863 15.5614 40.6767Z" fill="black"/>
</g>
<defs>
<clipPath id="clip0_2587_756">
<rect width="48" height="48" fill="white" transform="translate(0.5)"/>
</clipPath>
</defs>
</svg>
