<svg width="48" height="48" viewBox="0 0 48 48" fill="none" xmlns="http://www.w3.org/2000/svg">
<g clip-path="url(#clip0_2587_760)">
<path d="M48.5 48.0002L0.5 0H48.5V48.0002Z" fill="black"/>
<path fill-rule="evenodd" clip-rule="evenodd" d="M16.0519 22.3865C15.8777 22.472 16.0972 23.2558 16.3575 23.4777C16.6631 23.7382 16.5982 24.2806 16.2621 24.2767C15.9242 24.2726 15.9238 24.2586 16.3374 26.6898C16.59 28.1742 16.7904 28.6183 17.2048 28.6116C17.5778 28.6056 17.5954 28.6388 18.0859 30.269C18.4713 31.5498 17.8013 32.3634 17.1859 31.3619C16.7291 30.6186 16.3875 29.6544 16.4847 29.3835C16.5877 29.0966 16.5877 29.0966 16.2132 28.6586C16.0073 28.4177 15.7927 28.087 15.7365 27.9237C15.5987 27.5236 15.3674 27.3451 14.874 27.2581C14.5949 27.2089 14.4446 27.1385 14.4112 27.0414C14.3839 26.9623 14.1513 26.7453 13.8944 26.5592C13.1309 26.0061 12.5659 26.0379 12.9059 26.6149C13.0372 26.8378 13.0254 26.8561 12.8202 26.7495C11.9349 26.2894 11.6296 26.7933 12.2895 27.6252C12.4426 27.8181 12.7114 28.1993 12.8871 28.4723C13.0629 28.7453 13.2649 29.0474 13.3361 29.1438C13.4998 29.3654 13.2579 29.7534 13.0257 29.6413C12.9324 29.5962 12.5769 29.1214 12.2357 28.5859C11.8944 28.0505 11.4178 27.3463 11.1766 27.0212C10.7053 26.3858 10.7384 26.4078 9.13805 25.6716C8.22766 25.2528 8.22766 25.2528 8.09048 24.8544C7.89125 24.2758 7.49322 24.001 6.63495 23.8496C6.26776 23.7848 5.58095 23.5958 5.10892 23.4298C2.66777 22.571 2.12351 23.5045 3.06487 26.9359C3.32578 27.8871 3.46177 28.0153 4.72394 28.4998C7.58794 29.5993 9.58263 29.0396 8.98508 27.3042C8.82116 26.8282 8.94862 26.8705 9.82516 27.5829C10.4216 28.0676 10.6613 28.3153 10.7315 28.5193C10.7841 28.6719 11.1524 29.4074 11.55 30.1538C12.3624 31.679 12.361 31.6718 11.8384 31.6701C11.0035 31.6674 10.7897 31.891 10.7665 32.7919C10.7575 33.1399 10.7037 33.5332 10.6468 33.6659C10.5181 33.967 10.6257 34.2882 11.1904 35.2887C11.6359 36.0783 11.6359 36.0783 11.4001 36.3035C11.1711 36.5222 10.3507 38.041 10.1592 38.6007C10.1071 38.7528 9.95965 39.0569 9.8316 39.2763C9.60025 39.6725 9.37016 40.2901 9.41034 40.4068C9.42809 40.4583 10.5114 41.0585 10.6217 41.0779C10.6423 41.0816 10.7411 40.8609 10.8415 40.5876C11.258 39.4536 13.3079 36.9764 14.0195 36.747C14.2748 36.6648 14.6704 36.539 14.8989 36.4675C16.0886 36.0954 18.8581 36.4995 22.1183 37.5208C22.792 37.7319 23.1856 37.9312 23.6046 38.2736C23.7423 38.3861 24.1555 38.6138 24.5229 38.7795C25.7206 39.3198 31.153 44.2141 31.4219 44.9951C31.5069 45.2419 32.6982 46.7003 32.8908 46.7932C33.1084 46.8982 33.6264 46.6473 33.5607 46.4687C33.1122 45.2485 31.6354 43.4276 29.549 41.5226C28.74 40.7839 27.7082 39.8395 27.2561 39.424C26.4658 38.6977 24.8087 37.4548 23.966 36.9564C23.744 36.825 23.5239 36.6542 23.4767 36.5768C23.4296 36.4992 23.0846 35.9198 22.7101 35.289C21.8049 33.7649 21.1798 32.9021 20.6585 32.4577C20.2128 32.0777 18.9288 28.5142 18.969 27.769C18.9787 27.5904 18.9229 27.4384 18.7871 27.2734C18.4352 26.8455 18.6214 26.4521 19.133 26.5423C20.4035 26.7663 19.4266 25.102 18.0481 24.6941C17.4942 24.5301 17.3948 24.3719 17.3825 23.6332C17.3694 22.8445 16.5958 22.1198 16.0519 22.3865ZM17.0856 24.1279C17.1054 24.1851 17.0725 24.2233 17.0127 24.2128C16.9529 24.2022 16.8878 24.1468 16.8681 24.0895C16.8484 24.0323 16.8812 23.994 16.941 24.0046C17.0009 24.0151 17.0659 24.0706 17.0856 24.1279ZM17.7676 25.0443C17.8204 25.1035 17.7928 25.347 17.7064 25.5854C17.537 26.0522 17.4088 26.7801 17.3612 27.5456C17.3158 28.2743 17.118 28.214 16.9256 27.4129C16.7316 26.6048 16.5648 24.8036 16.6786 24.7443C16.7997 24.6812 17.6542 24.9165 17.7676 25.0443ZM5.39695 23.9299C5.81543 24.0994 5.85062 24.1348 5.98382 24.5217C6.13829 24.9703 6.55823 25.4007 6.90017 25.461C8.25848 25.7005 9.16567 27.6432 8.14373 28.1243C6.24844 29.0166 3.92094 28.0247 3.57347 26.1765C3.49169 25.7417 3.38701 25.2253 3.34085 25.0289C3.0227 23.6765 3.77658 23.2735 5.39695 23.9299ZM8.11793 25.3631C8.43913 25.5706 8.98295 25.8887 9.32638 26.0702C9.66986 26.2518 10.0928 26.479 10.2664 26.5751C10.8658 26.9071 13.0306 29.9804 13.2093 30.7531C13.3269 31.2613 13.7303 31.7044 14.0432 31.669C14.515 31.6158 15.1948 31.7054 15.4496 31.8545C15.9886 32.1701 16.2488 32.7808 15.8113 32.7036C14.5048 32.4732 13.7382 33.0052 14.1578 33.8511C14.5437 34.6287 14.1514 34.7659 13.368 34.1274C12.2476 33.2139 12.1546 33.183 11.6092 33.5408C11.0989 33.8755 11.0976 33.9228 11.5741 34.7941C11.9468 35.4758 11.9059 35.5631 11.4541 35.051C10.9851 34.5194 10.9557 34.3905 11.05 33.2838C11.1569 32.0316 11.2157 31.9484 12.0115 31.9234C12.8021 31.8985 12.8013 31.8002 11.9996 30.3807C11.7089 29.866 11.2748 29.0949 11.035 28.6671C10.6047 27.8996 10.585 27.8786 9.53247 27.0657C7.82685 25.7484 7.1318 25.121 7.28567 25.0378C7.4642 24.9409 7.4641 24.9409 8.11793 25.3631ZM18.5199 27.8779C18.5383 27.9476 18.5936 28.1415 18.6427 28.3087C18.7284 28.6002 18.7171 28.6058 18.3683 28.4462C17.9505 28.2551 17.903 28.173 18.0262 27.8549C18.1154 27.6244 18.4572 27.6402 18.5199 27.8779ZM13.2229 27.4473C13.2783 27.6082 13.1027 27.9247 13.0272 27.8C12.7706 27.3764 12.7116 26.9949 12.9218 27.1179C13.051 27.1936 13.1865 27.3418 13.2229 27.4473ZM14.436 27.9142C14.4635 28.0266 14.5283 28.3306 14.5799 28.5897C14.6668 29.0264 14.7003 29.0785 15.0371 29.3011C15.5869 29.6644 15.8345 29.2746 15.4957 28.5794C15.3054 28.1892 15.2963 28.1148 15.442 28.1405C15.5412 28.158 15.6468 28.2565 15.6848 28.3669C15.7218 28.4744 15.8456 28.6336 15.9599 28.7207C16.2422 28.936 16.2846 29.1048 16.1016 29.2848C16.017 29.3678 15.9944 29.5138 16.0514 29.6089C16.7618 30.7963 16.6807 30.9902 15.791 30.231C15.4532 29.9428 15.0041 29.6063 14.7928 29.4831C13.9485 28.9905 13.4071 28.0185 13.7541 27.6184C13.8749 27.4792 14.3835 27.6999 14.436 27.9142ZM18.3743 29.0104C18.391 29.115 18.4391 29.3168 18.481 29.4586C18.5531 29.7031 18.4828 29.8453 18.3039 29.8171C18.1812 29.7977 17.9611 29.0876 18.0119 28.8746C18.0662 28.6466 18.3319 28.7461 18.3743 29.0104ZM15.2898 28.7542C15.3253 28.9108 15.2998 29.0473 15.2332 29.0576C15.0498 29.086 14.8519 28.7409 14.8919 28.4624C14.9364 28.1531 15.197 28.3443 15.2898 28.7542ZM19.5062 30.6239C19.9532 31.7894 19.942 31.8847 19.3742 31.7484C18.7055 31.5878 18.1973 30.4857 18.7642 30.4253C19.0358 30.3965 19.0754 30.336 19.0059 30.0555C18.8484 29.4189 19.195 29.8127 19.5062 30.6239ZM19.0122 30.8418C19.1459 31.0467 19.3911 31.12 19.3277 30.9361C19.2966 30.8455 19.1935 30.7576 19.0988 30.741C19.0041 30.7243 18.9651 30.7696 19.0122 30.8418ZM19.2169 31.3402C19.2005 31.3882 19.243 31.463 19.3112 31.5066C19.3794 31.5501 19.4485 31.5463 19.4648 31.4983C19.4812 31.4502 19.4387 31.3754 19.3705 31.3318C19.3023 31.2883 19.2332 31.2921 19.2169 31.3402ZM18.9553 32.5246C18.9104 32.5974 18.8322 32.6496 18.7816 32.6407C18.7311 32.6317 18.6936 32.5591 18.6984 32.4793C18.7033 32.3995 18.7814 32.3473 18.8721 32.3633C19.0063 32.3869 19.0217 32.4169 18.9553 32.5246ZM19.3998 33.0827C19.3496 33.2125 19.3664 33.4021 19.4372 33.5038C19.8735 34.1306 19.5279 34.7279 18.803 34.6001C18.4203 34.5326 18.0988 34.5532 17.7983 34.6643C17.3886 34.816 17.3381 34.813 17.1033 34.6244C16.7734 34.3595 16.6992 34.1314 16.9578 34.177C17.0701 34.1968 17.2006 34.1505 17.2476 34.0743C17.2947 33.998 17.4886 33.8773 17.6785 33.806C18.0764 33.6568 18.0757 33.6919 17.6928 33.1639C17.1517 32.4176 17.4719 32.5615 18.1217 33.3566C18.8856 34.2913 18.9459 34.3541 18.981 34.251C18.9995 34.1969 18.929 34.0485 18.8244 33.9215C18.674 33.7385 18.6676 33.6962 18.7935 33.7184C19.0352 33.761 19.1923 33.5095 19.0969 33.2326C19.0501 33.0967 19.0941 32.9329 19.1951 32.8681C19.4368 32.7128 19.5123 32.7919 19.3998 33.0827ZM20.2926 33.7382C20.3025 33.7669 20.2861 33.786 20.2561 33.7807C20.2262 33.7754 20.1937 33.7477 20.1838 33.7191C20.174 33.6904 20.1904 33.6713 20.2203 33.6766C20.2502 33.6819 20.2827 33.7096 20.2926 33.7382ZM15.6684 33.3629C15.6881 33.4202 15.613 33.4509 15.5014 33.4312C15.3898 33.4116 15.2064 33.4672 15.0937 33.5549C14.85 33.7445 14.7774 33.742 14.7083 33.5414C14.6798 33.4588 14.7402 33.3374 14.8425 33.2717C15.0495 33.1388 15.6126 33.2009 15.6684 33.3629ZM19.0887 35.1386C19.1987 35.2624 18.8943 35.6918 18.7184 35.6608C17.9657 35.5281 17.6774 34.969 18.3799 35.0046C18.6367 35.0176 18.8783 35.0273 18.9166 35.0259C18.955 35.0247 19.0324 35.0753 19.0887 35.1386ZM20.5787 35.4534C20.6845 35.5539 20.7513 35.6592 20.7273 35.6872C20.6526 35.7742 20.3083 35.564 20.2505 35.3962C20.1803 35.1923 20.3322 35.2187 20.5787 35.4534ZM14.2997 35.3217C14.3293 35.4076 14.28 35.4649 14.1903 35.4491C14.1006 35.4332 14.003 35.35 13.9734 35.2642C13.9438 35.1783 13.9931 35.1209 14.0828 35.1368C14.1725 35.1526 14.2701 35.2358 14.2997 35.3217Z" fill="black"/>
</g>
<defs>
<clipPath id="clip0_2587_760">
<rect width="48" height="48" fill="white" transform="translate(0.5)"/>
</clipPath>
</defs>
</svg>
