<svg width="49" height="49" viewBox="0 0 49 49" fill="none" xmlns="http://www.w3.org/2000/svg">
<g clip-path="url(#clip0_2588_810)">
<path d="M48.5 48.0588L0.5 0.0585938H48.5V48.0588Z" fill="black"/>
<path d="M15.064 45.1622C15.0735 45.1803 15.0877 45.1987 15.1062 45.2132C15.2627 45.3361 15.3862 45.2708 15.4449 45.2045C15.4581 45.1895 15.4558 45.1636 15.4414 45.1359L8.17077 31.0872C8.1117 30.973 8.42905 30.8899 8.55238 30.9665C8.60808 31.0011 8.65668 31.0262 8.6944 31.0388C8.70704 31.043 8.71847 31.0436 8.72857 31.0423L9.69383 30.9145C10.0916 30.8468 10.3074 31.0113 10.4756 30.9193C10.6437 30.8272 10.7711 30.8118 11.0291 30.6153C11.287 30.4188 11.1788 30.5085 11.6264 30.4724C11.9623 30.4454 12.1884 30.1791 12.2745 30.0251C12.2846 30.007 12.3065 29.9986 12.3353 30.0032L12.3737 30.0093C12.4408 30.0199 12.5231 30.094 12.5386 30.1565C12.6792 30.7224 13.3443 32.9993 13.9584 34.3985C14.6461 35.9658 15.2112 37.9052 15.5133 38.6763C15.8153 39.4475 15.9438 40.0963 16.1751 40.6428L16.6341 41.7273C16.6365 41.7329 16.6384 41.7385 16.6397 41.7439C16.8709 42.6902 17.1801 43.5066 17.3388 43.91C17.4979 44.3147 16.9327 44.3322 17.2123 44.5898C17.4046 44.767 17.7383 44.7199 17.9424 44.656C17.9892 44.6413 18.072 44.6813 18.1202 44.7403C18.1761 44.8087 18.2591 44.9059 18.375 45.0343C18.6501 45.3386 18.9073 45.486 19.4296 45.5684C19.9517 45.6509 19.6883 45.4314 20.1859 45.4269C20.5287 45.4239 21.051 45.3453 21.362 45.2903C21.4223 45.2796 21.5154 45.3481 21.5328 45.4161L21.6221 45.7654C21.6399 45.8346 21.7323 45.8995 21.782 45.8742C21.9128 45.8078 22.0941 45.671 22.2338 45.43C22.4733 45.0172 22.3589 45.0347 22.7727 45.0052C23.1866 44.9756 23.1244 45.0014 23.6836 45.315C24.1073 45.5527 24.4128 45.6574 24.5305 45.6849C24.5425 45.6877 24.5545 45.6917 24.5671 45.6978C24.9575 45.8867 25.7352 46.2178 25.867 46.0985C26.0343 45.9471 25.6741 45.7004 25.4529 45.5232C25.2316 45.3459 25.4099 45.6231 25.0702 44.763C24.7305 43.9029 24.1651 43.114 23.7562 42.1481L19.3396 31.714C19.3026 31.6267 19.3972 31.6041 19.4837 31.6796L20.1599 32.2704C20.7398 32.777 21.4272 33.1346 21.8066 33.2538C22.186 33.373 22.0938 33.2991 22.4409 33.5437C22.7881 33.7883 23.6545 34.2808 24.0077 34.3959C24.2674 34.4805 24.2179 33.9721 24.1482 33.6435C24.1384 33.5972 24.1696 33.5709 24.2209 33.5813C24.3519 33.6078 24.5784 33.6467 24.8606 33.6767C25.3198 33.7254 25.491 33.6695 25.875 33.7419C26.259 33.8144 26.4846 33.3401 26.4922 33.1278C26.4998 32.9155 26.3231 32.7572 25.9798 32.6081C25.7783 32.5206 25.4365 32.4458 25.1767 32.3993C25.089 32.3835 24.9966 32.2695 25.0252 32.2136C25.0661 32.134 25.1048 32.0383 25.1165 31.95C25.1426 31.7525 24.9329 31.8617 24.7379 31.8902C24.5428 31.9187 23.937 32.0128 23.7236 32.0266C23.5101 32.0403 22.3443 31.5597 22.133 31.3485C21.9218 31.1372 21.716 31.1403 21.4295 30.9528C21.2425 30.8303 20.982 30.7479 20.8159 30.7075C20.7618 30.6943 20.7023 30.6461 20.6745 30.5946C20.6209 30.4951 20.5272 30.3426 20.3926 30.1723C20.1567 29.8742 19.7375 29.891 19.4917 29.8285C19.2951 29.7785 18.3692 28.6155 17.9308 28.0403C17.8802 27.9649 17.8256 27.8968 17.7711 27.8365C17.6871 27.7437 17.6841 27.5744 17.7838 27.5901L17.8784 27.6051C17.9251 27.6124 17.951 27.5861 17.9303 27.5404C17.8384 27.3384 17.534 26.8712 16.8136 26.1205C16.0216 25.2952 15.1202 24.6204 14.6751 24.3643C14.6321 24.3395 14.5955 24.2995 14.582 24.2611C14.4636 23.9244 14.1815 23.2556 13.8362 22.8278C13.4902 22.3994 13.0967 22.3447 12.9128 22.3735C12.8907 22.377 12.8631 22.3717 12.8346 22.3575C12.2868 22.0855 11.7716 22.0699 11.5663 22.0982C11.5583 22.0993 11.5495 22.0991 11.5402 22.0979C11.2399 22.0591 11.2022 22.3351 11.3052 22.7484C11.3816 23.0555 11.4923 23.4368 11.5502 23.6299C11.5594 23.6606 11.551 23.6845 11.5297 23.6959C11.4553 23.7358 11.3286 23.8253 11.2249 23.9692C11.0714 24.1821 10.8473 24.5737 10.8084 25.1724C10.7819 25.5791 10.8606 25.8662 10.9224 26.0027C10.9385 26.0383 10.9776 26.0699 11.0166 26.0841L11.2652 26.1746C11.2848 26.1817 11.304 26.1993 11.3115 26.2172V26.2172C11.3196 26.2363 11.312 26.25 11.2964 26.2536C11.173 26.2827 11.1302 26.4936 11.1253 26.6693C11.12 26.8582 10.8996 26.942 10.6639 27.2488C10.4904 27.4747 10.3873 27.8182 10.3493 27.9974C10.3438 28.0235 10.3181 28.0359 10.295 28.0478C10.2319 28.0802 10.1855 28.1952 10.1598 28.2882C10.1499 28.3242 10.1037 28.3318 10.0502 28.3071C9.66934 28.1317 9.68561 28.2649 9.28674 28.3122C8.8575 28.363 9.11321 28.3916 8.84828 28.4564C8.64159 28.5071 7.89063 28.5388 7.51462 28.5491C7.49644 28.5496 7.4752 28.544 7.45355 28.5327C7.26945 28.4366 7.13867 28.3526 6.97845 28.3273C6.85445 28.3077 6.7227 28.1946 6.65845 28.1262C6.64731 28.1144 6.63887 28.1016 6.63274 28.0889L5.69199 26.1472C5.68265 26.1279 5.67923 26.1096 5.68516 26.0966C5.71301 26.0357 5.7941 25.929 5.70055 25.6824C5.59525 25.4049 5.66957 24.9185 5.4029 24.2597C5.19357 23.7426 4.25019 22.7273 3.7792 22.2583C3.76176 22.2409 3.74849 22.222 3.7405 22.2031L3.54607 21.7437C3.53099 21.7081 3.49648 21.6717 3.45692 21.6538C3.21286 21.5436 2.9674 21.5404 2.83217 21.5584C2.79821 21.563 2.7877 21.5936 2.80319 21.6324C2.8864 21.8405 3.00905 22.1594 3.02579 22.2487C3.02884 22.265 3.02799 22.2802 3.03085 22.2964C3.08068 22.5796 3.18899 23.4041 3.41857 23.9464C3.65527 24.5056 4.13069 24.7942 4.511 25.376C4.6889 25.6482 4.81784 25.7975 4.90275 25.8736C4.95948 25.9244 5.04659 25.9957 5.07723 26.0543L6.01471 27.8486C6.03349 27.8846 6.03087 27.916 6.01038 27.9324C5.91879 28.0058 5.79392 28.1616 5.8351 28.3603C5.89355 28.6423 5.98574 28.7162 6.14783 28.9552C6.30994 29.1943 6.40757 29.4825 6.69182 29.895C6.84934 30.1236 7.00731 30.2161 7.11802 30.2453C7.18283 30.2624 7.264 30.3117 7.29615 30.3729L15.064 45.1622Z" fill="black"/>
</g>
<defs>
<clipPath id="clip0_2588_810">
<rect width="48" height="48" fill="white" transform="translate(0.5 0.0585938)"/>
</clipPath>
</defs>
</svg>
