<svg width="49" height="49" viewBox="0 0 49 49" fill="none" xmlns="http://www.w3.org/2000/svg">
<g clip-path="url(#clip0_2587_773)">
<path d="M48.5 48.0588L0.5 0.0585938H48.5V48.0588Z" fill="black"/>
<path d="M8.65038 34.4651C8.65071 34.3139 8.68848 33.8676 8.71018 33.632C8.7122 33.6101 8.69856 33.5826 8.67464 33.56C8.14448 33.0597 7.12398 32.0137 6.99117 31.5498C6.821 30.9554 7.11521 30.8081 7.06097 30.4001C7.00674 29.9922 6.94556 29.9648 6.89175 29.3577C6.8494 28.88 7.04862 28.2673 7.15861 28.0075C7.16224 27.999 7.16897 27.9931 7.17834 27.99L8.20578 27.6432C8.22131 27.638 8.2296 27.6246 8.22857 27.6067L8.21424 27.3629C8.21313 27.344 8.22237 27.3304 8.2393 27.3257L8.28344 27.3135C8.30703 27.307 8.31487 27.2832 8.30319 27.2542C8.09414 26.7365 8.13513 26.8239 7.76775 26.2918C7.38929 25.7437 7.52391 25.7841 7.39003 25.3952C7.25615 25.0064 7.50105 25.0164 7.61804 24.7051C7.69989 24.4873 8.16471 24.5062 8.47111 24.5555C8.52481 24.5641 8.54236 24.516 8.50114 24.4658C8.39508 24.3367 8.23447 24.1469 8.07273 23.9719C7.79785 23.6745 7.76837 23.1381 8.20308 23.1483C8.63778 23.1586 8.82588 23.9553 8.88065 24.1144C8.91808 24.2231 8.94598 24.4747 8.95948 24.6365C8.96272 24.6753 9.0068 24.7227 9.05246 24.7478C9.15244 24.8028 9.27781 24.9024 9.38426 24.9954C9.44397 25.0476 9.5414 25.043 9.57651 25.0118C9.64201 24.9535 9.77776 24.9685 9.83994 25.0471C9.93155 25.1628 10.1196 26.0093 10.1804 26.1861C10.2413 26.3628 10.6801 27.2868 10.7227 27.4105C10.7653 27.5342 10.643 27.4794 10.5695 27.4665C10.4961 27.4535 10.7161 27.6417 10.8566 27.7993C10.9971 27.9569 10.7769 27.8682 10.7034 27.8553C10.6532 27.8464 10.6973 28.0238 10.7378 28.1528C10.7486 28.1873 10.7316 28.2116 10.697 28.2091L10.4405 28.1906C10.3805 28.1863 10.3831 28.2573 10.4445 28.3041L11.4395 29.0615C11.4602 29.0773 11.4763 29.0982 11.4833 29.1185L11.5488 29.3087C11.5505 29.3137 11.5526 29.3184 11.5554 29.3235C11.7395 29.6599 12.0893 30.5263 12.3193 30.9953C12.5509 31.4678 13.0636 32.2554 13.3013 32.7455C13.5391 33.2356 14.6103 36.2464 14.7563 36.6706C14.8512 36.9462 14.8156 37.063 14.7693 37.1008C14.7534 37.1138 14.741 37.1323 14.7442 37.1575C14.7781 37.4188 14.5804 37.5499 14.4445 37.5939C14.4217 37.6013 14.4123 37.6236 14.4227 37.6524C14.5308 37.9502 14.7569 38.5878 14.9226 39.1068C15.1415 39.7928 15.2994 40.4017 15.305 40.6682C15.3105 40.9348 15.5056 41.351 15.6572 42.0417C15.8088 42.7325 16.259 44.09 16.4415 44.6202C16.6241 45.1504 16.9849 45.3468 17.4803 45.5835C17.8003 45.7364 18.1312 45.804 18.3296 45.8273C18.3829 45.8336 18.4419 45.8931 18.4257 45.9306C18.2841 46.2578 17.4997 46.0287 16.8614 45.8396C16.17 45.6347 16.4024 45.7587 15.98 45.6842C15.5577 45.6097 15.6069 45.5022 15.3998 45.0009C15.1927 44.4996 14.8826 43.4987 14.5531 42.9426C14.2237 42.3866 13.6097 40.3029 13.3721 39.763C13.1344 39.2231 12.5236 38.551 12.3036 38.3131C12.0837 38.0751 12.3095 38.4303 12.3393 38.8173C12.3691 39.2044 12.4973 39.3764 12.5578 39.7024C12.6184 40.0285 12.4164 39.9929 12.422 40.2595C12.4263 40.4691 13.365 42.9244 13.8578 44.1875C13.8721 44.2242 13.9126 44.257 13.9517 44.268C14.0705 44.3015 14.2364 44.3768 14.2804 44.5047C14.3473 44.6991 14.1819 44.7695 14.0771 45.0664C13.9724 45.3634 13.5932 45.1637 13.3484 45.104C13.1036 45.0442 12.9822 44.5912 12.7812 44.0578C12.5803 43.5243 12.3667 43.2045 11.8788 42.2885C11.3909 41.3725 11.1415 40.6479 10.9108 39.7274C10.6801 38.807 9.69927 36.4595 9.54714 36.0176C9.39501 35.5758 8.39647 38.6865 8.24851 39.1584C8.10055 39.6303 8.09758 41.0241 7.79258 40.489C7.48758 39.9538 7.73823 40.1308 7.80195 38.9635C7.86567 37.7961 9.16859 35.5193 9.23007 35.3973C9.29156 35.2754 9.16377 34.9043 8.99275 34.7081C8.82173 34.512 8.64995 34.6643 8.65038 34.4651Z" fill="black"/>
<path d="M15.1967 23.7429C15.2483 23.6486 15.4096 23.6296 15.5432 23.646C15.5857 23.6513 15.612 23.6252 15.5976 23.5835L15.3236 22.7877C15.17 22.3416 15.5518 22.3914 15.4421 22.2848C15.3325 22.1782 15.3455 22.163 15.1659 21.7473C14.9863 21.3315 15.0385 21.2185 15.2651 21.241C15.4916 21.2635 15.8077 21.5462 15.7482 21.8499C15.7134 22.0278 15.7136 22.1732 15.722 22.2622C15.7257 22.301 15.771 22.3428 15.8146 22.3505L16.859 22.5346C17.4607 22.6407 17.5701 22.7997 17.8398 23.371C18.1094 23.9423 18.3016 24.4475 18.2037 24.6398C18.1384 24.7681 18.224 25.1112 18.3 25.3443C18.3178 25.3987 18.3952 25.4453 18.4497 25.4493C18.512 25.454 18.5781 25.4779 18.6274 25.5014C18.6556 25.5148 18.6783 25.5415 18.6872 25.5672L18.8415 26.0154C18.8482 26.0349 18.8627 26.0548 18.8821 26.0707C19.079 26.2335 20.188 27.1541 20.581 27.5729C21.0129 28.0331 21.0955 28.4317 21.6856 29.8277C22.2756 31.2236 22.4684 31.5718 22.5506 32.0752C22.6138 32.4625 22.9735 33.9232 23.1653 34.6844C23.1765 34.7289 23.1393 34.7497 23.0895 34.7305C22.9962 34.6945 22.9094 34.671 22.9737 34.7335C23.0591 34.8166 23.1337 35.2566 23.1626 35.4828C23.1641 35.4945 23.169 35.5069 23.177 35.5195C24.7102 37.9179 26.1603 41.0228 26.378 41.4965C26.5962 41.9714 26.5184 42.0101 26.3437 41.9793C26.169 41.9485 25.7656 40.8299 24.9881 39.3659C24.536 38.5147 24.0606 37.6987 23.7368 37.1607C23.6872 37.0784 23.5791 37.0743 23.6071 37.1555L23.9958 38.2844C24.0036 38.3069 24.0224 38.3301 24.0456 38.3474C24.3545 38.5772 24.1598 38.594 24.2592 38.6788C24.3407 38.7483 25.2443 41.8443 25.7039 43.446C25.7145 43.483 25.692 43.5054 25.653 43.4985L25.0553 43.3931C25.0246 43.3877 24.9886 43.3625 24.9564 43.3459C24.8778 43.3055 24.7098 43.2801 24.4152 43.3676C23.9355 43.5099 23.4249 43.2977 23.069 43.2698C22.713 43.242 22.591 42.9935 22.7723 42.9906C22.8528 42.9893 22.9917 42.9617 23.1248 42.9299C23.1889 42.9146 23.1288 42.7976 23.0472 42.7767C22.7155 42.6917 22.2831 42.5571 22.2177 42.4389C22.1212 42.2647 22.5675 42.3958 22.7554 42.3591C22.9433 42.3224 23.5072 42.16 23.5724 42.0318C23.6377 41.9037 21.9632 38.0993 21.6984 37.913C21.4337 37.7267 21.2079 37.5472 20.9841 36.8443C20.7603 36.1414 20.4254 35.6983 20.0651 35.1285C19.7048 34.5587 19.416 33.9316 19.3072 33.6157C19.1984 33.2997 18.9457 33.3599 18.765 33.2059C18.5844 33.0518 18.335 32.2746 18.1954 31.5517C18.0559 30.8287 17.7543 30.1645 17.4838 29.8026C17.2133 29.4407 16.9891 28.8425 16.8353 28.4487C16.7339 28.1891 16.6368 28.0164 16.5818 27.9335C16.5648 27.9079 16.5362 27.8889 16.5093 27.8829C16.1201 27.7961 15.3855 27.6304 15.246 27.5924C15.065 27.543 14.7685 27.2114 14.5558 26.9644C14.3432 26.7174 14.3252 26.3476 14.2486 26.0722C14.1893 25.8587 14.4227 25.2321 14.558 24.9184C14.5658 24.9004 14.5592 24.8744 14.5405 24.8497L14.4424 24.7199C14.4191 24.689 14.4151 24.6569 14.4324 24.6405C14.5142 24.5635 14.6508 24.4313 14.7152 24.3563C14.7212 24.3493 14.7274 24.3434 14.7338 24.3384C14.7748 24.3064 14.9085 24.2591 14.9129 24.2007C14.9323 23.943 15.1324 23.8608 15.1967 23.7429Z" fill="black"/>
</g>
<defs>
<clipPath id="clip0_2587_773">
<rect width="48" height="48" fill="white" transform="translate(0.5 0.0585938)"/>
</clipPath>
</defs>
</svg>
