<svg width="49" height="48" viewBox="0 0 49 48" fill="none" xmlns="http://www.w3.org/2000/svg">
<g clip-path="url(#clip0_2587_668)">
<path d="M48.5 48.0002L0.5 0H48.5V48.0002Z" fill="black"/>
<path fill-rule="evenodd" clip-rule="evenodd" d="M16.3033 22.5418C13.9827 22.3967 10.982 23.8912 9.6322 25.8645C9.16912 26.5416 9.11625 27.0402 9.38499 28.1993C9.48348 28.6244 9.4403 28.9005 9.21955 29.256C9.03543 29.5526 9.04346 29.5544 7.58148 28.8887C5.27714 27.8396 3.82568 28.0859 4.56476 29.4007C4.63252 29.5213 4.64093 29.6979 4.58783 29.8848C4.46726 30.3094 4.67348 30.8277 4.85323 30.5518C4.95583 30.3943 5.43132 30.3022 5.74543 30.3789C6.8902 30.6588 8.95185 34.4 8.08674 34.6277C7.6993 34.7298 7.55183 35.4561 7.84321 35.8279C7.99133 36.0169 7.99405 36.0178 7.98547 35.876C7.97207 35.6546 8.08093 35.2794 8.14203 35.3364C8.17188 35.3642 8.18193 35.4478 8.16428 35.5221C8.12406 35.6916 8.23641 36.0274 8.36417 36.1197C8.41735 36.1581 8.44422 36.1412 8.42388 36.0822C8.31454 35.7646 8.50833 35.3149 8.69603 35.4506C8.9904 35.6633 9.15001 36.4369 8.88479 36.3659C8.66352 36.3066 8.65639 36.4454 8.87718 36.5144C9.13201 36.5942 9.11169 36.5902 9.40755 36.6182V36.6182C9.44598 36.6219 9.48232 36.6828 9.45027 36.6895V36.6895C9.14613 36.7538 9.21221 36.8807 9.55766 36.8959C9.99117 36.915 10.2111 36.988 10.2046 37.1106C10.2016 37.1685 10.2339 37.2251 10.2765 37.2365C10.3192 37.248 10.4261 37.4665 10.5141 37.7222C10.6022 37.9779 10.7474 38.2969 10.837 38.4309C10.9264 38.565 11.1264 38.9166 11.2813 39.2123C11.8975 40.3892 12.9239 41.8567 13.0833 41.7889C13.112 41.7767 13.2337 41.8952 13.3538 42.0522C13.5659 42.3297 14.585 43.2974 14.6965 43.3273C14.7271 43.3355 14.95 43.4991 15.1918 43.6911C15.4759 43.9164 15.7318 44.0694 15.9145 44.1232C16.0701 44.169 16.4484 44.3397 16.7552 44.5025L17.256 44.7683C17.2913 44.787 17.3239 44.7898 17.3423 44.7756L17.4774 44.6708C17.5848 44.5875 17.7422 44.57 17.9305 44.6205C18.1016 44.6663 18.2059 44.6595 18.1867 44.6038C18.1615 44.5307 18.1829 44.5364 18.2827 44.6295C18.5825 44.9091 18.7684 44.8162 18.6422 44.4498C18.6048 44.3412 18.6467 44.3146 18.7931 44.3538C19.1481 44.449 19.4787 44.3476 19.4152 44.1632C19.3837 44.0715 19.4304 43.9187 19.5191 43.8236C19.7175 43.6107 19.6272 43.4877 18.5978 42.5688C18.2304 42.2409 17.1999 41.2254 16.3078 40.3121L14.7159 38.6825C14.6964 38.6625 14.6814 38.6399 14.6735 38.6185L14.4628 38.0519C14.2225 37.4055 14.2244 37.2984 14.4725 37.5079C14.5971 37.613 14.6695 37.6343 14.806 37.6055C14.9049 37.5847 15.1069 37.6226 15.2728 37.6931C15.4863 37.7838 15.5932 37.7923 15.6693 37.7245C15.7267 37.6736 15.843 37.6591 15.9278 37.6923C16.1506 37.7797 16.3871 37.7473 16.3934 37.6285C16.3964 37.5718 16.5006 37.5532 16.6265 37.587C16.7754 37.6269 16.9061 37.5875 17.0047 37.4727C17.1263 37.3314 17.202 37.3185 17.3964 37.4059C17.5919 37.4938 17.665 37.4803 17.7847 37.3344C17.8741 37.2253 18.0115 37.1759 18.1343 37.2088C18.3444 37.2651 18.4678 37.1845 18.5712 36.9234C18.622 36.7949 18.678 36.7898 18.9183 36.8919C19.1642 36.9963 19.2257 36.9881 19.3524 36.8334C19.4337 36.7343 19.5731 36.6402 19.6622 36.6243C19.8853 36.5844 20.0436 36.5098 20.2652 36.3399C20.3691 36.2601 20.5016 36.2077 20.5597 36.2232C20.6177 36.2388 20.7364 36.1833 20.8235 36.1C20.9105 36.0167 21.1375 35.934 21.328 35.9163C21.6815 35.8833 21.9531 35.7107 21.899 35.5534C21.8824 35.5052 22.0094 35.4668 22.181 35.4679C22.5916 35.4707 22.8406 35.2975 22.7382 35.0803C22.6728 34.9416 22.7188 34.9131 23.0003 34.9181C23.4924 34.9268 23.7538 34.7577 23.6191 34.5179C23.5234 34.3476 23.5467 34.3327 23.8482 34.3712C24.4998 34.4543 24.7748 34.1511 24.2883 33.8858C23.9576 33.7055 24.0106 33.596 24.382 33.6928C24.9563 33.8424 25.6072 33.6089 25.2873 33.3681C25.2064 33.3073 25.005 33.2207 24.8397 33.1758C24.6744 33.1309 24.5272 33.0596 24.5127 33.0173C24.4861 32.94 24.5222 32.9379 25.178 32.9798C25.6586 33.0105 26.2607 32.8196 26.2039 32.6545C26.193 32.6228 25.8226 32.5205 25.381 32.4272C24.2116 32.1802 23.9196 31.8794 25.0151 32.0503C25.5736 32.1375 26.5079 32.1039 26.6668 31.991C26.7771 31.9127 26.77 31.9072 26.5167 31.8752C25.6269 31.7628 24.6076 31.4996 24.6726 31.3991C24.7084 31.3438 24.784 31.311 24.8405 31.3262C25.0816 31.3907 26.6205 30.9754 26.5127 30.8749C26.4872 30.8512 26.2254 30.8654 25.9309 30.9065C25.4574 30.9725 24.1346 30.9948 23.9305 30.9401C23.7497 30.8917 23.9211 30.8036 24.2331 30.7845C24.7651 30.752 25.2643 30.5554 25.5935 30.2488C25.9053 29.9583 25.7812 29.932 25.2939 30.1851C24.2723 30.716 22.7676 30.7341 19.134 30.2592C18.6542 30.1965 17.9616 30.1611 17.5948 30.1806C17.228 30.2 16.9018 30.1916 16.8699 30.1618C16.7965 30.0934 16.9374 29.3455 17.0647 29.1282C17.1173 29.0382 17.1465 28.9243 17.1295 28.875C17.1125 28.8256 17.1847 28.7026 17.2898 28.6016C17.3949 28.5007 17.4722 28.3303 17.4615 28.2231C17.4507 28.1159 17.5127 27.9248 17.5991 27.7984C17.6856 27.6719 17.7492 27.4927 17.7404 27.4C17.7317 27.3075 17.794 27.1468 17.879 27.0432C17.964 26.9395 18.0246 26.768 18.0136 26.6621C18.0026 26.5562 18.0521 26.3685 18.1236 26.2452C18.195 26.1218 18.2238 25.9348 18.1876 25.8296C18.1446 25.7047 18.2013 25.5687 18.3507 25.4377C18.5318 25.2791 18.5569 25.1963 18.4702 25.0422C18.3827 24.8865 18.4073 24.8142 18.5929 24.6821C18.8682 24.4863 18.8292 24.2602 18.4992 24.1387C18.2787 24.0575 18.2794 24.0541 18.5384 23.9285C18.8394 23.7826 18.783 23.6589 18.3644 23.5468L18.3003 23.5296C18.2153 23.5068 18.1374 23.3953 18.1755 23.351L18.2205 23.2987L18.2923 23.2151C18.3256 23.1764 18.27 23.0825 18.192 23.0455L18.1329 23.0176C18.0042 22.9566 17.7633 22.8873 17.5978 22.8636C17.4322 22.8399 17.2657 22.7832 17.2276 22.7377C17.1352 22.627 16.9131 22.5799 16.3033 22.5418ZM9.4811 36.3367C9.35122 36.3819 9.27422 36.3006 9.27011 36.114C9.26687 35.9679 9.27415 35.9688 9.42244 36.1317C9.55377 36.276 9.56302 36.3081 9.4811 36.3367ZM9.83647 36.6683C9.81697 36.6891 9.76896 36.6762 9.72971 36.6397C9.69053 36.6031 9.70644 36.586 9.7651 36.6018C9.82376 36.6175 9.85586 36.6474 9.83647 36.6683Z" fill="black"/>
</g>
<defs>
<clipPath id="clip0_2587_668">
<rect width="48" height="48" fill="white" transform="translate(0.5)"/>
</clipPath>
</defs>
</svg>
