<svg width="48" height="48" viewBox="0 0 48 48" fill="none" xmlns="http://www.w3.org/2000/svg">
<g clip-path="url(#clip0_2588_803)">
<path d="M48.5 48.0588L0.5 0.0585938H48.5V48.0588Z" fill="black"/>
<path fill-rule="evenodd" clip-rule="evenodd" d="M11.5344 22.8246C11.4093 23.062 11.418 23.4175 11.5671 24.1617C11.6001 24.3266 11.9331 25.0435 12.0642 25.2317C12.2267 25.4651 11.9916 25.3194 11.5126 24.8898C10.9977 24.4281 10.453 23.8016 10.3786 23.5854C10.3469 23.4934 10.0919 23.3212 10.0529 23.3655C10.041 23.379 10.11 23.4931 10.2062 23.6191C10.3025 23.745 10.3924 23.8805 10.4061 23.9202C10.4469 24.0387 11.0541 24.7859 11.3762 25.1141C11.9236 25.6717 11.9596 25.7491 11.8753 26.1859C11.8622 26.2534 11.8543 26.3651 11.8577 26.4341C11.8663 26.6109 11.7819 26.6007 11.6802 26.4128C11.5551 26.1815 11.1057 25.5872 11.1026 25.6491C11.0985 25.7328 10.9783 25.6844 10.9065 25.5701C10.8667 25.5066 10.8596 25.4567 10.8885 25.4426C10.9681 25.4038 10.7096 25.1434 9.95093 24.498C8.90927 23.6119 8.79132 23.5804 9.27083 24.3164C9.57674 24.7858 9.83605 25.2257 9.95683 25.48C10.0187 25.6103 10.1744 25.9116 10.3028 26.1497C10.4312 26.3878 10.5682 26.642 10.6073 26.7147C10.7078 26.9018 10.6638 26.8761 10.2518 26.5064C10.048 26.3235 9.74064 26.091 9.55557 25.9797C9.24129 25.7908 9.06258 25.6612 8.10387 24.9278C7.21456 24.2474 7.17562 24.3823 7.96554 25.4073L8.32277 25.8708C8.32604 25.8751 8.32817 25.8795 8.32883 25.8836L8.37858 26.1823C8.41632 26.4089 8.46588 26.5583 8.57141 26.7635C8.76881 27.1474 8.7421 27.1335 8.2804 26.6115C7.92953 26.2148 6.3766 24.755 6.21286 24.6679C5.98303 24.5456 6.82832 26.2413 7.41402 27.0775C7.57261 27.304 7.54906 27.3022 7.04586 27.0491C6.79917 26.9251 6.41664 26.7579 6.19582 26.6778C5.72404 26.5065 5.47234 26.3384 5.03506 25.9024C4.49686 25.3657 4.49587 25.3997 5.02575 26.2297C5.662 27.2264 6.19182 27.7795 7.00673 28.2979C7.49223 28.6067 7.50257 28.6492 7.06053 28.5196C6.7088 28.4165 6.70295 28.4129 6.19892 28.0061C5.25494 27.2443 5.13879 27.1565 5.11294 27.1859C5.05853 27.2478 5.31629 27.596 5.62154 27.8731C5.79326 28.029 5.96568 28.2151 6.0047 28.2867C6.04366 28.3583 6.20112 28.5526 6.35456 28.7185C6.68126 29.0718 6.68276 29.0853 6.37869 28.9344C6.07882 28.7856 5.52793 28.5624 5.38612 28.5323C5.19422 28.4915 4.72577 28.1841 4.23475 27.7768C3.55509 27.2131 3.64851 27.6497 4.38824 28.4942C4.50386 28.6262 4.6087 28.7639 4.6212 28.8002C4.65579 28.9007 5.5882 29.7043 5.85454 29.8633C6.18268 30.0591 6.19459 30.0593 5.25829 29.8534C4.39093 29.6626 3.739 29.6181 3.55762 29.7371C3.38669 29.8494 4.54556 30.7607 5.74451 31.4567C6.22322 31.7347 6.24216 31.771 5.95558 31.8611C5.74697 31.9267 5.39537 32.1446 5.09825 32.3922C5.01957 32.4578 4.88782 32.4977 4.76347 32.4935C4.50705 32.4849 4.49138 32.5029 4.64824 32.6256C4.71736 32.6797 4.7994 32.7629 4.83065 32.8105C4.89495 32.9086 5.17185 32.9799 5.56186 32.9987C5.78121 33.0093 6.66804 33.4535 6.95701 33.6975C7.09558 33.8146 5.87453 33.9902 5.2535 33.9425C4.91829 33.9168 4.94669 33.9808 5.37925 34.2256C5.79549 34.4612 7.1459 35.1229 7.25966 35.1471C7.42629 35.1825 7.40387 35.2603 7.21844 35.2902C6.58949 35.3917 6.55315 35.5833 7.14343 35.6857C7.64572 35.7728 7.6774 35.7925 7.4399 35.8704C6.63084 36.1356 7.54548 36.8964 9.00597 37.1731C9.78749 37.3211 9.82507 37.4022 9.19523 37.5817C8.99032 37.6401 8.80173 37.7117 8.77609 37.7408C8.75048 37.77 8.70622 37.799 8.67779 37.8053C8.64309 37.813 8.6866 37.8667 8.81007 37.9685C9.15773 38.2552 9.25161 38.2896 10.1228 38.4492C11.0532 38.6196 11.128 38.6463 11.0731 38.7881C11.0526 38.8413 11.0524 38.9332 11.0728 38.9925C11.0932 39.0517 11.1018 39.2219 11.0918 39.3706C11.0679 39.7264 11.1545 40.0701 11.3797 40.5137C11.6001 40.9477 11.5962 40.9464 11.8385 40.6657C11.9453 40.5421 12.1986 40.349 12.4014 40.2366C12.7541 40.0413 12.9443 39.8504 13.1804 39.4548C13.2945 39.2635 13.4091 39.2836 13.3982 39.493C13.3949 39.5566 13.4165 39.6362 13.4461 39.6698C13.4758 39.7034 13.5724 39.9337 13.6609 40.1817C13.8387 40.6803 13.8556 40.7067 13.9701 40.664C14.0533 40.633 14.0518 40.6176 13.9038 39.9444C13.8551 39.7233 13.8007 39.3956 13.7829 39.2162C13.765 39.0367 13.7248 38.7791 13.6936 38.6437C13.5155 37.8701 13.5601 37.1387 13.788 37.0977C14.5257 36.965 14.5399 36.9747 14.3492 37.4833C14.2165 37.8371 14.2029 38.0706 14.3136 38.0942C14.3744 38.1071 14.7075 37.557 14.8305 37.2407C15.042 36.6969 15.4157 36.5654 15.7948 36.9014C15.8128 36.9174 15.7332 37.024 15.6179 37.1383C15.3727 37.3813 15.3978 37.4459 15.6905 37.3252C15.9438 37.2207 16.0262 37.2345 16.2197 37.4136C16.3046 37.4922 16.4217 37.5629 16.4913 37.5777C16.6643 37.6145 16.691 37.6716 16.8262 38.2921C17.0777 39.4468 16.9601 40.3681 16.439 41.324C16.0833 41.9765 15.8482 42.9888 15.8851 43.708C15.8955 43.9093 15.9016 44.1071 15.8988 44.1474C15.8887 44.2924 16.0721 44.2615 16.2607 44.0863C16.4503 43.9106 16.55 43.6493 16.5656 43.288C16.5728 43.1196 16.7871 42.8779 16.9065 42.9033C16.9148 42.9051 17.0337 43.232 17.1707 43.63C17.4534 44.4509 17.8399 45.1454 18.0374 45.1874C18.2738 45.2377 18.7396 44.5047 18.7645 44.0431C18.7782 43.7897 18.864 43.8194 19.0031 44.1259C19.1871 44.5315 20.2797 45.8344 20.4696 45.8747C20.5478 45.8913 20.794 45.5423 20.8223 45.3748C20.8587 45.1589 20.7134 44.4948 20.5364 44.069C20.459 43.8826 20.4138 43.7339 20.4362 43.7387C20.5193 43.7563 20.9471 44.2197 21.2217 44.5895C21.594 45.0908 22.1443 45.5481 22.7974 45.8988C23.1494 46.0879 22.9344 45.6739 22.1215 44.5975C21.637 43.9558 21.4864 43.6957 21.519 43.5568C21.5414 43.4614 21.5308 43.4438 21.3796 43.3261C21.215 43.1979 21.0532 42.8905 21.1625 42.9137C21.2697 42.9365 21.9223 43.72 21.9845 43.9004C22.0575 44.1124 22.1258 44.1667 22.1972 44.0693C22.2674 43.9741 22.3337 43.9923 22.5506 44.1664C22.7289 44.3096 22.8163 44.3495 23.0165 44.3791C23.1556 44.3995 23.1194 44.3081 22.79 43.8077C22.6239 43.5553 22.5255 43.3739 22.5337 43.335C22.5409 43.3003 22.5347 43.1639 22.5198 43.0319C22.4814 42.6898 22.5171 42.563 22.6444 42.59C22.7036 42.6026 22.7854 42.5632 22.8283 42.5014C22.8839 42.4214 22.9481 42.3991 23.0568 42.4222C23.3477 42.484 23.4574 42.2612 23.304 41.9201C23.1589 41.5976 23.1694 41.5923 23.5391 41.8018C24.0265 42.078 24.4705 42.0932 24.5255 41.8357C24.5485 41.7277 24.5952 41.6974 24.7442 41.6937C24.8837 41.6902 24.9387 41.6591 24.953 41.5755C24.9776 41.4319 25.0604 41.4195 25.5445 41.4864C26.1699 41.5728 26.7817 41.508 26.7308 41.3607C26.7081 41.2955 26.4028 41.086 25.8108 40.7295C25.5823 40.5918 25.1951 40.3434 24.9504 40.1775C24.6417 39.9682 24.4008 39.835 24.1638 39.7425C23.976 39.6691 23.58 39.508 23.2839 39.3846C22.9878 39.2611 22.4736 39.0661 22.1413 38.9511C21.3174 38.6662 20.3126 38.0248 20.2063 37.7159C20.1772 37.6315 20.2873 37.6337 20.361 37.719C20.5442 37.9309 20.6795 37.8106 20.6316 37.4784C20.5881 37.1774 20.7025 37.1735 21.2385 37.4574C21.6243 37.6618 21.7996 37.6937 22.0044 37.5968C22.2188 37.4953 22.0987 37.3601 21.8446 37.4169C21.599 37.4719 21.0165 37.3107 20.9976 37.1826C20.9659 36.9674 21.2338 36.9044 21.6998 37.0174C22.0153 37.0939 22.224 37.1207 22.4085 37.1086C22.7469 37.0864 22.725 37.0331 22.3654 37.0041C21.7788 36.9568 21.1236 36.6484 21.5105 36.6017C21.5902 36.592 21.6966 36.5535 21.7468 36.5159L21.8312 36.453C21.8356 36.4497 21.8432 36.4504 21.8512 36.4547L22.244 36.6682C22.8071 36.9742 23.6454 37.3586 24.0755 37.508C24.5452 37.6712 25.3628 38.6312 25.5873 39.2831C25.6635 39.5046 25.8143 39.7438 25.761 39.5587C25.7555 39.54 25.7384 39.4404 25.7228 39.3375C25.6441 38.8173 24.7048 37.4926 24.3631 37.42C23.9772 37.338 24.3683 37.247 24.8409 37.3088C25.1645 37.3511 25.3081 37.3472 25.4445 37.2919C25.5428 37.2521 25.6686 37.2291 25.724 37.2408C25.9087 37.28 26.383 37.0346 26.3436 36.9204C26.3233 36.8615 26.2955 36.8494 26.2015 36.8588C26.0255 36.8765 24.7398 36.5718 24.4708 36.4485C24.2136 36.3307 24.1067 36.2198 24.2738 36.2441C24.4473 36.2694 24.8825 36.3388 25.0092 36.3614L25.0718 36.3726C25.0907 36.3759 25.0908 36.3544 25.0718 36.3396L24.8756 36.1855C24.8615 36.1745 24.8569 36.158 24.8667 36.1533L24.9722 36.1032C25.1785 36.005 25.6891 36.0911 26.3153 36.3296C26.7932 36.5118 25.1021 35.1028 24.3711 34.7099C24.0772 34.5519 24.053 34.5013 24.2961 34.5529C24.6294 34.6238 25.0359 34.588 25.4974 34.4471C25.9084 34.3216 25.9787 34.3152 26.2708 34.377C26.716 34.471 26.6158 34.358 25.8386 33.8896C24.8867 33.3159 24.3702 33.1128 23.8751 33.1174C23.576 33.1202 23.8081 32.9804 24.2164 32.9117C24.577 32.8511 25.1334 31.9373 24.9623 31.6867C24.8374 31.5036 23.4421 31.3961 22.9609 31.5326C22.7599 31.5896 22.7429 31.5265 22.8889 31.2645C23.1127 30.8629 23.1365 30.6779 23.0476 30.0367C23.0094 29.7618 22.9524 29.6759 22.8637 29.7604C22.7598 29.8593 22.7087 29.754 22.8038 29.6372C22.8523 29.5777 22.8741 29.5132 22.8522 29.4938C22.7468 29.4004 20.8406 29.3108 20.6299 29.3894C20.4955 29.4396 20.4634 29.3593 20.5749 29.2514C20.8114 29.0223 20.9548 28.4107 20.9428 27.682C20.9327 27.0705 20.9219 27.0514 20.6673 27.1968C20.5971 27.2371 20.3893 27.3211 20.2055 27.3837C19.7509 27.5386 19.4004 27.725 19.2699 27.8812C19.1064 28.077 19.0936 28.0604 18.7868 27.2567C18.5221 26.563 18.506 26.5031 18.4977 26.184C18.4852 25.6958 18.321 25.2779 18.1253 25.2363C18.0734 25.2253 18.0762 25.2807 18.1363 25.4551C18.2145 25.6824 18.2781 26.1788 18.2844 26.6114C18.2864 26.7511 18.2317 26.8985 18.126 27.0376C18.0372 27.1546 17.9688 27.2981 17.9741 27.3566C17.9903 27.5356 17.9037 27.4578 17.8218 27.22C17.7663 27.0588 17.759 26.9292 17.7962 26.7631C17.8248 26.6356 17.832 26.4843 17.8122 26.4269C17.7924 26.3695 17.778 26.2414 17.7801 26.1423C17.7846 25.9288 17.785 25.9304 17.7253 25.9178C17.6171 25.8948 17.4749 26.7378 17.4514 27.5414C17.4388 27.9713 17.4262 28.1798 17.3971 28.4328C17.386 28.5288 17.3961 28.7503 17.4194 28.9248C17.5296 29.7504 17.4996 30.0852 17.3187 30.0467C17.2523 30.0326 17.2153 30.0499 17.2287 30.0888C17.2428 30.1296 17.1947 30.1478 17.1024 30.1364C16.9569 30.1185 16.955 30.1237 17.0229 30.3586C17.0691 30.5187 17.072 30.6029 17.0315 30.6103C16.9981 30.6164 16.9545 30.7163 16.9347 30.8323C16.854 31.3054 16.734 31.3245 16.6839 30.8722C16.6314 30.3979 16.5282 30.1487 16.3059 29.9592C16.0377 29.7306 15.8341 29.1675 15.9709 29.0332C16.1638 28.8439 16.5605 28.2424 16.5911 28.0927L16.6161 27.9708C16.619 27.9567 16.5973 27.9357 16.5816 27.9374L16.5364 27.9422C16.3808 27.9587 16.3612 27.709 16.4831 27.2643C16.524 27.1151 16.5676 26.8459 16.5801 26.6661C16.6101 26.2338 16.7413 25.7023 16.8845 25.4336C17.05 25.1231 17.008 25.0863 16.6369 25.2167C16.2127 25.3657 16.0194 25.4999 15.6569 25.8971C15.2362 26.3581 15.2592 26.357 15.2217 25.9181C15.1918 25.5676 15.0636 25.1474 14.8605 24.734C14.612 24.2281 14.1925 23.5062 14.1406 23.4952C13.9244 23.4493 13.5696 24.2729 13.6534 24.6265C13.7262 24.9338 13.736 25.453 13.6687 25.4387C13.605 25.4252 13.5615 25.362 13.4158 25.0708C13.2612 24.7617 12.9593 24.3795 12.5733 24.004C12.3451 23.7821 12.1591 23.5669 12.0818 23.4351C11.8377 23.0195 11.582 22.7343 11.5344 22.8246ZM13.4088 27.9411C13.674 28.2469 13.7319 28.3733 13.6124 28.386C13.5091 28.3971 13.5441 28.5118 13.7231 28.7482C13.9182 29.0061 13.8524 29.0102 13.5642 28.7582C13.2877 28.5166 13.2735 28.4885 13.1765 27.9971C13.0981 27.6001 13.1105 27.5971 13.4088 27.9411ZM13.8029 29.1729C14.1225 29.5557 14.4462 30.1742 14.4353 30.3814C14.4259 30.5639 14.3584 30.504 14.1883 30.1617C14.0985 29.981 13.8904 29.6597 13.7056 29.4163C13.3523 28.951 13.3236 28.8997 13.381 28.8345C13.4411 28.7661 13.5084 28.8201 13.8029 29.1729ZM21.2882 31.0382C21.3007 31.0745 21.2181 31.3547 21.1444 31.5261C21.0537 31.7369 20.6727 32.1032 20.3619 32.2783C19.6993 32.6515 19.7417 32.639 19.5584 32.5149C19.4651 32.4517 19.435 32.4518 19.3724 32.5151C19.0001 32.8922 18.4176 32.7076 18.5186 32.2445C18.5517 32.0929 18.5684 31.939 18.5558 31.9024C18.5432 31.8657 18.561 31.6922 18.5953 31.5168L18.6563 31.2055C18.6572 31.2007 18.661 31.1979 18.6666 31.1979L18.9084 31.1967C19.0463 31.1961 19.4729 31.1593 19.8564 31.1149C20.24 31.0706 20.6557 31.0378 20.7803 31.0419C20.9048 31.0461 21.0528 31.04 21.1092 31.0284C21.2262 31.0044 21.2775 31.0072 21.2882 31.0382ZM11.2782 29.1475C11.6133 29.4278 11.777 29.7274 11.6575 29.8413C11.5641 29.9302 11.4808 29.8537 11.2117 29.4323C10.8485 28.8633 10.8632 28.8003 11.2782 29.1475ZM17.0645 31.6523C17.1063 31.7736 16.9914 32.1503 16.9207 32.1239C16.7629 32.0652 16.689 31.7676 16.8075 31.6682C16.9155 31.5776 17.0362 31.5701 17.0645 31.6523ZM10.7377 30.9456C10.9193 31.1158 10.8838 31.2074 10.6659 31.1309C10.5148 31.0779 10.4878 31.0817 10.4936 31.1555C10.4996 31.2309 10.4739 31.2335 10.307 31.174C10.1809 31.1291 10.1195 31.1224 10.1307 31.155C10.1402 31.1825 10.1692 31.2096 10.1953 31.2151C10.2214 31.2206 10.2533 31.2562 10.2664 31.2941C10.3022 31.398 10.2402 31.3646 9.99799 31.1494C9.70086 30.8854 9.72855 30.8174 10.1273 30.8316C10.2935 30.8376 10.4371 30.8337 10.4465 30.8231C10.483 30.7816 10.6279 30.8426 10.7377 30.9456ZM11.8104 31.7244C11.9867 31.8145 12.0428 31.8614 12.0568 31.9301C12.0951 32.1179 11.6863 31.9463 11.1567 31.5522C10.7572 31.255 10.7867 31.1943 11.221 31.4201C11.4195 31.5233 11.6848 31.6603 11.8104 31.7244ZM20.7375 33.9178C20.9522 34.0771 21.2971 34.3255 21.5037 34.4698C22.4035 35.0983 22.4445 35.1925 21.736 35.004C21.156 34.8497 20.8567 34.8326 20.5672 34.9371C20.2538 35.0502 20.0461 34.9522 20.1515 34.7409C20.1844 34.675 20.182 34.5807 20.1453 34.4998C20.0828 34.3619 19.9354 34.2511 19.9776 34.3737C19.9908 34.412 19.9527 34.474 19.8928 34.5115C19.833 34.549 19.8006 34.5988 19.8208 34.6222C19.8409 34.6456 19.8135 34.6884 19.7598 34.7175C19.6643 34.7692 19.6619 34.7683 19.6548 34.6786C19.6502 34.6202 19.6254 34.5821 19.5867 34.5738C19.5533 34.5667 19.4893 34.5249 19.4446 34.4809C19.3999 34.4369 19.2861 34.3722 19.1916 34.3371C18.8973 34.2278 18.845 33.8281 19.1057 33.6788C19.1845 33.6336 19.2924 33.5606 19.3455 33.5164C19.4321 33.4441 19.4877 33.4457 19.8944 33.5322L20.3401 33.6269C20.3446 33.6278 20.3493 33.6301 20.3538 33.6334L20.7375 33.9178ZM18.6618 33.6893C18.7438 33.7841 18.721 34.0492 18.6325 34.0304C18.5101 34.0044 18.3239 33.6954 18.3873 33.6234C18.4173 33.5892 18.6167 33.6371 18.6618 33.6893ZM10.3503 32.864C10.4341 32.9041 10.6011 32.9786 10.7213 33.0297C10.9672 33.134 11.0359 33.2181 10.8352 33.1692C9.82992 32.9239 10.3048 33.2829 11.4882 33.6628C12.2446 33.9056 12.1063 33.974 11.2401 33.7855C10.7289 33.6743 10.457 33.5532 9.85045 33.1664C9.35384 32.8498 9.35933 32.7799 9.87842 32.8109C9.99601 32.8179 10.1015 32.8132 10.1127 32.8005C10.1397 32.7697 10.1702 32.7778 10.3503 32.864ZM20.5335 35.7331C20.7101 35.8292 20.8978 35.917 20.9507 35.9283C21.233 35.9883 21.026 36.0307 20.7263 35.9742C19.961 35.8301 20.0242 35.8533 19.9885 35.703C19.9325 35.4674 20.0579 35.4743 20.5335 35.7331ZM12.0212 35.0518C12.1009 35.1787 12.0792 35.2348 11.9602 35.2095C11.8885 35.1943 11.8775 35.2156 11.9157 35.2958C11.9932 35.4587 12.7503 35.6254 13.1069 35.5582C13.3589 35.5107 13.1939 35.7076 12.9202 35.7811C12.7489 35.827 12.5719 35.9013 12.5269 35.946C12.3687 36.1033 11.1015 35.9002 10.9615 35.6951C10.7883 35.4415 11.2621 34.9265 11.6602 34.9357C11.9441 34.9423 11.9546 34.9457 12.0212 35.0518ZM20.0718 38.8817C20.5989 39.7945 20.4511 39.9443 19.8028 39.1543C19.4972 38.7818 19.3824 38.5329 19.5308 38.5644C19.582 38.5753 19.6325 38.5477 19.643 38.5031C19.6854 38.3227 19.8151 38.4371 20.0718 38.8817ZM19.3303 38.8825C19.635 39.2264 19.9905 39.531 20.3165 39.7275C20.5384 39.8612 20.5411 39.8665 20.914 40.8703C21.2646 41.8138 21.2648 41.8132 20.76 41.2847C20.5565 41.0716 20.2205 40.7272 20.0132 40.5192C19.5351 40.0395 19.169 39.5777 18.8862 39.0976C18.6204 38.6463 18.6236 38.654 18.727 38.7077C18.7746 38.7323 18.8086 38.7234 18.8077 38.6868C18.8068 38.6518 18.8054 38.5944 18.8046 38.5591C18.8008 38.4001 19.0255 38.5383 19.3303 38.8825Z" fill="black"/>
</g>
<defs>
<clipPath id="clip0_2588_803">
<rect width="48" height="48" fill="white" transform="translate(0.5 0.0585938)"/>
</clipPath>
</defs>
</svg>
