<svg width="49" height="48" viewBox="0 0 49 48" fill="none" xmlns="http://www.w3.org/2000/svg">
<g clip-path="url(#clip0_2587_764)">
<path d="M48.5 48.0002L0.5 0H48.5V48.0002Z" fill="black"/>
<path fill-rule="evenodd" clip-rule="evenodd" d="M14.5462 39.3614C14.6351 39.9123 14.8261 41.0347 14.9529 41.5725C15.0818 42.1193 15.3225 43.2167 15.4336 43.729C15.4382 43.7499 15.4526 43.7728 15.4732 43.7925C15.7716 44.077 16.3509 44.6502 16.5206 44.8977C16.7254 45.1964 17.234 45.7259 17.6051 45.9258C17.6494 45.9497 17.6894 45.9961 17.687 46.0303C17.6729 46.2307 17.4939 46.4536 16.8393 46.0981C16.2875 45.7984 16.0994 45.5302 15.916 45.2688C15.7972 45.0994 15.6803 44.9329 15.4678 44.7624C15.2583 44.5944 15.0704 44.4783 14.9163 44.383C14.6728 44.2325 14.514 44.1343 14.4886 43.9668C14.4472 43.6934 14.353 43.1431 14.1 42.5032C13.9702 42.1747 13.7066 41.5899 13.4303 40.9768C13.1685 40.3959 12.8952 39.7896 12.7133 39.3517C12.4302 38.6702 12.1906 38.0194 12.0912 37.7371C12.0815 37.7097 12.0572 37.681 12.0279 37.6625C11.4946 37.3249 10.3056 36.5559 9.44231 35.9428C9.11982 35.7138 8.82771 35.5236 8.57054 35.3562C7.94046 34.946 7.52004 34.6723 7.37641 34.2979C7.17417 33.7706 7.14038 31.6501 7.68353 30.7646C7.98434 30.3473 8.76877 29.3806 9.50012 28.8521C10.2146 28.3358 11.2426 27.6448 11.6985 27.3431C11.7173 27.3306 11.7163 27.301 11.694 27.2693C11.6069 27.1459 11.4468 26.9561 11.2942 26.8939C11.1243 26.8246 10.6216 26.7007 10.3635 26.6409C10.3437 26.6362 10.3279 26.6397 10.3188 26.6501C10.1374 26.8558 9.61665 27.1982 8.86312 27.0392C7.89575 26.835 6.87229 26.4586 6.04933 25.6649C5.33422 24.9753 5.25209 24.1612 5.28036 23.8959C5.28481 23.8542 5.23962 23.786 5.18453 23.7584L3.9308 23.1312C3.88695 23.1093 3.85082 23.0624 3.85061 23.0272L3.8497 22.8754C3.84949 22.8402 3.88519 22.8302 3.92899 22.8533L5.34151 23.597C5.37297 23.6136 5.40158 23.6136 5.41421 23.5971L5.60417 23.3483C5.62555 23.3203 5.5931 23.2591 5.54008 23.2274L4.19652 22.4243C4.15324 22.3984 4.12172 22.3511 4.12628 22.3188L4.15547 22.1118C4.16043 22.0767 4.20566 22.0745 4.25172 22.1072L5.74543 23.1665C5.77862 23.19 5.81314 23.1963 5.8308 23.1821L6.00068 23.0451C6.02855 23.0226 6.00275 22.9614 5.9501 22.925L4.48204 21.9108C4.44508 21.8853 4.41907 21.8452 4.42018 21.8155L4.42808 21.6036C4.42959 21.5633 4.47907 21.5601 4.52834 21.597L6.21575 22.8625C6.24859 22.8871 6.2834 22.895 6.30405 22.8839C6.54336 22.7549 7.24174 22.6589 8.40205 23.1922C9.92673 23.893 10.3045 24.5343 10.2918 24.877C10.2839 25.0872 10.1647 25.2149 10.0651 25.2777C10.0311 25.2991 10.0531 25.368 10.1113 25.4074C10.2851 25.5251 10.5357 25.6796 10.7353 25.7586C10.7828 25.7774 10.8068 25.7487 10.7912 25.7042C10.6856 25.4037 10.6139 24.8988 10.7658 24.9038C10.8218 24.9056 10.8467 24.9783 10.8913 25.1082C10.9799 25.3666 11.1462 25.8516 11.7901 26.4556C12.3479 26.9792 12.3945 26.9144 12.4729 26.8053C12.4975 26.7712 12.5252 26.7327 12.5727 26.7065C12.6333 26.6732 12.6812 26.6312 12.7266 26.5914C12.8302 26.5004 12.9213 26.4204 13.1245 26.4789C13.3544 26.545 14.2682 26.7738 14.7171 26.8851C14.7312 26.8886 14.7431 26.8881 14.7525 26.8837C15.0039 26.7678 15.5918 26.5715 16.0482 26.6649C16.2736 26.7111 16.7467 26.7686 17.2911 26.8349C18.1513 26.9395 19.1894 27.0658 19.7087 27.2028C20.5568 27.4266 21.863 28.0862 22.1939 28.3946C22.3103 28.5031 22.4025 28.6026 22.4881 28.695C22.6443 28.8636 22.7787 29.0086 22.9983 29.1417C23.0031 29.1446 23.0085 29.1484 23.0131 29.1522C23.0484 29.1819 23.0782 29.2778 23.1079 29.3729C23.1362 29.4639 23.1643 29.5541 23.1966 29.5843L23.5562 29.9212C23.6066 29.9684 23.6678 29.9726 23.6737 29.9303C23.6935 29.7885 23.7375 29.6154 23.8128 29.6458C23.9025 29.682 24.4618 30.2036 24.7595 30.4876C24.7799 30.5071 24.8041 30.5209 24.8258 30.5253C24.9426 30.5492 25.1301 30.5883 25.1547 30.5962C25.1792 30.6041 25.5712 30.9002 25.8239 31.0929C25.8677 31.1262 25.9134 31.1286 25.9235 31.0981L26.0262 30.7869C26.0355 30.7588 26.0757 30.7584 26.1172 30.7861L26.1319 30.796C26.1622 30.8162 26.1863 30.8469 26.1937 30.8747L26.289 31.2337C26.2967 31.2628 26.3227 31.2949 26.3546 31.3153C26.5587 31.4455 26.9018 31.6789 27.0599 31.8365C27.0888 31.8653 27.0968 31.8986 27.0837 31.9166L26.9361 32.1182C26.9277 32.1296 26.9277 32.1475 26.9362 32.1677L27.082 32.5142C27.0883 32.529 27.0988 32.5443 27.1122 32.558L27.3164 32.7671C27.3709 32.8228 27.363 32.8842 27.303 32.8718L26.846 32.7776C26.7841 32.7648 26.7783 32.8301 26.8363 32.886L27.4241 33.4521C27.4588 33.4856 27.4736 33.5271 27.4584 33.5488L26.7387 34.5723C26.7256 34.5909 26.6936 34.5899 26.6595 34.5699L26.1503 34.271C26.1208 34.2536 26.0926 34.2504 26.0762 34.2616C25.8866 34.3911 25.4126 34.546 24.8272 34.2481C24.0799 33.8679 23.8725 33.6699 23.7796 33.3134C23.7746 33.2944 23.762 33.2734 23.7441 33.2551L23.3247 32.8282C23.3022 32.8053 23.2742 32.7894 23.2501 32.7859L22.484 32.6734C22.4668 32.6708 22.453 32.6749 22.4453 32.6848L21.8054 33.5044C21.7923 33.5212 21.7623 33.5205 21.73 33.5025L18.6534 31.7897C18.6459 31.7854 18.6383 31.7821 18.6309 31.7797L15.6306 30.8177C15.5895 30.8046 15.5639 30.824 15.5693 30.8604C15.6038 31.0917 15.5864 31.5238 15.2914 31.8264C14.9689 32.1573 14.218 32.6313 13.8709 32.8341C13.8629 32.8387 13.8582 32.8463 13.8567 32.8563L13.3453 36.1921C13.3435 36.2042 13.3468 36.2192 13.3548 36.2348L14.3169 38.1089C14.326 38.1267 14.3407 38.1443 14.3582 38.1584C14.6615 38.4023 15.3609 38.9229 15.9478 39.2232C16.5548 39.5337 16.59 39.754 16.6351 40.0356C16.6462 40.1049 16.6579 40.1781 16.6789 40.2572C16.7083 40.3679 16.7305 40.4874 16.7534 40.6106C16.8132 40.9327 16.8777 41.2801 17.088 41.5636C17.2958 41.8435 17.5104 42.4027 17.6192 42.7276C17.6362 42.7786 17.5937 42.7983 17.5385 42.7659L16.5518 42.1863C16.5194 42.1672 16.4921 42.1352 16.4829 42.1054C16.3472 41.6664 16.0078 40.7441 15.6144 40.1952C15.249 39.6853 14.8265 39.4205 14.6059 39.3267C14.566 39.3097 14.5406 39.3266 14.5462 39.3614ZM22.3994 30.023C22.4368 30.0558 22.4546 30.0992 22.4446 30.1259C22.4014 30.2412 22.3788 30.4721 22.5222 30.7651C22.5432 30.8082 22.5311 30.8427 22.4916 30.8401L22.1671 30.8186C22.1342 30.8164 22.0927 30.789 22.0685 30.7533L21.5506 29.9923C21.5385 29.9745 21.5216 29.9581 21.503 29.9461C21.2277 29.768 20.7227 29.4364 20.6965 29.3982C20.6627 29.3488 19.8424 28.6042 19.7914 28.5686C19.7552 28.5433 19.4362 28.4465 19.2287 28.3859C19.1882 28.3741 19.1642 28.395 19.1743 28.433L19.1992 28.5266C19.2114 28.5727 19.1735 28.5915 19.1224 28.5646L18.8633 28.4287C18.7911 28.3909 18.7582 28.3027 18.8134 28.294C19.1751 28.2372 19.7623 28.1691 20.0825 28.2188C20.4928 28.2824 20.6643 28.4491 20.8988 28.6772C20.9302 28.7078 20.9628 28.7395 20.9973 28.7722C21.218 28.9816 21.9854 29.6594 22.3994 30.023ZM10.6588 32.6945C10.6868 32.6703 10.7413 32.7112 10.7531 32.761L11.385 35.4314C11.3967 35.4805 11.3508 35.4958 11.2963 35.4609C10.8178 35.1546 10.0405 34.6648 9.71015 34.4826C9.65021 34.4496 9.60011 34.3723 9.61931 34.3367C9.90991 33.7987 10.4314 32.891 10.6588 32.6945Z" fill="black"/>
</g>
<defs>
<clipPath id="clip0_2587_764">
<rect width="48" height="48" fill="white" transform="translate(0.5)"/>
</clipPath>
</defs>
</svg>
