<svg width="48" height="48" viewBox="0 0 48 48" fill="none" xmlns="http://www.w3.org/2000/svg">
<g clip-path="url(#clip0_2588_814)">
<path d="M48.5 48.0588L0.5 0.0585938H48.5V48.0588Z" fill="black"/>
<path fill-rule="evenodd" clip-rule="evenodd" d="M14.6898 26.686C14.7084 26.6892 14.749 26.6808 14.7799 26.6673C14.8589 26.6328 14.9576 26.6589 15.0816 26.747C15.1402 26.7886 15.3387 26.9274 15.5227 27.0554C16.0014 27.3885 16.9751 28.0762 18.5619 29.2021C18.7418 29.3297 18.9728 29.4926 19.0754 29.5642C19.178 29.6357 19.4922 29.8582 19.7737 30.0585C20.0552 30.2589 20.3235 30.449 20.37 30.481C20.4164 30.513 20.5623 30.6166 20.694 30.7113C20.9011 30.8601 21.6587 31.398 22.2764 31.8348C22.3811 31.9088 22.574 32.0453 22.7052 32.1381C22.8363 32.231 23.1584 32.4585 23.421 32.6437C23.6835 32.8289 23.9965 33.0504 24.1165 33.1358C24.6641 33.5255 25.0133 33.7617 25.0547 33.7704C25.1244 33.7849 25.663 33.9607 25.8286 34.0229C25.9101 34.0535 26.0691 34.1105 26.1819 34.1495C26.2835 34.1847 26.3379 34.1999 26.3704 34.2321C26.4129 34.2743 26.418 34.3459 26.4428 34.5301C26.4673 34.7119 26.4731 34.7808 26.5168 34.8368C26.5489 34.878 26.6016 34.9121 26.6973 34.9791C26.8093 35.0575 27.1375 35.2865 27.4265 35.4881C27.7155 35.6897 28.0671 35.9363 28.2077 36.0361C28.3483 36.1359 28.5851 36.3018 28.734 36.4048C29.0191 36.602 30.3771 37.5553 30.509 37.6508C30.6249 37.7346 30.6195 37.7478 30.4145 37.885C30.2866 37.9705 30.2337 38 30.2488 38.0416C30.2596 38.0715 30.3057 38.1077 30.3843 38.1755C30.4603 38.241 30.507 38.2773 30.5171 38.3065C30.5323 38.3505 30.4642 38.3784 30.2875 38.4661C30.1467 38.536 29.97 38.6402 29.8949 38.6977C29.8197 38.7552 29.7193 38.8247 29.6719 38.8522C29.6244 38.8798 29.5623 38.9193 29.5338 38.94C29.5054 38.9607 29.3838 39.0306 29.2637 39.0952C29.1436 39.1598 28.8983 39.2928 28.7185 39.3908C28.1993 39.6738 28.0427 39.7585 27.6823 39.9517C27.5529 40.0211 27.4671 40.0667 27.4123 40.099C27.4723 40.4722 27.5504 40.9491 27.6294 41.4324C27.7871 42.3964 27.9491 43.3862 27.9809 43.6305C27.9887 43.6578 27.9895 43.6886 27.986 43.7245C27.9762 43.8261 27.8901 43.8043 27.1382 43.5094C26.9988 43.4547 26.7783 43.3709 26.6484 43.3232C26.5184 43.2754 26.3515 43.2123 26.2775 43.1828C26.2035 43.1533 26.0712 43.1064 25.9835 43.0785C25.7581 43.0068 25.2029 42.8028 25.0233 42.7257C24.7492 42.608 24.105 42.3828 23.9607 42.3543C23.8411 42.3307 23.8075 42.3143 23.745 42.2487C23.7147 42.2169 23.6968 42.1982 23.6796 42.1909C23.6547 42.1803 23.6312 42.1937 23.5738 42.2266C23.5204 42.2572 23.3773 42.3386 23.2557 42.4076C23.1342 42.4765 22.9908 42.5607 22.9371 42.5947C22.8833 42.6286 22.8304 42.6547 22.8195 42.6525C22.8085 42.6503 22.689 42.7109 22.554 42.787C22.419 42.8632 22.3024 42.9243 22.2949 42.9229C22.2875 42.9214 22.2408 42.9465 22.1912 42.9787C22.1401 43.0118 22.0639 43.0309 22.0157 43.0226C21.9265 43.0073 21.9151 42.9995 21.4194 42.6148C21.2648 42.4948 21.0899 42.3739 21.0307 42.3461C20.785 42.231 20.329 41.8596 19.5666 41.1534C18.9616 40.5929 18.5703 40.3162 18.2015 40.1879C18.1031 40.1537 17.8862 40.07 17.5023 39.9179C17.2564 39.8206 16.9049 39.6882 16.7461 39.633C16.6736 39.6078 16.4578 39.5206 16.2666 39.4392C16.0754 39.3578 15.847 39.2678 15.7591 39.2391C15.4545 39.1398 15.0989 39.0109 14.8598 38.9132C14.7277 38.8593 14.582 38.8075 14.5361 38.7982C14.4902 38.7889 14.4049 38.7601 14.3464 38.7342C14.2879 38.7083 14.1737 38.6632 14.0928 38.6341C13.7762 38.5202 12.8365 38.1702 12.7607 38.1378C12.6631 38.0963 12.0594 37.8572 11.8495 37.7771C11.7433 37.7366 11.6028 37.6826 11.5373 37.6573C11.4718 37.6319 11.3122 37.573 11.1826 37.5265C10.9463 37.4416 10.8456 37.4039 10.4865 37.2659C10.2275 37.1663 10.0013 37.0818 9.80535 37.0114C9.57141 36.9272 9.27597 36.8142 9.13667 36.7555C9.07025 36.7275 8.95048 36.6831 8.87046 36.6569C8.79045 36.6306 8.62446 36.5701 8.50162 36.5224C7.85555 36.2715 7.75099 36.2327 7.36267 36.1C7.23397 36.056 7.01423 35.9743 6.87436 35.9184C6.7345 35.8625 6.51329 35.7765 6.38281 35.7272C6.25232 35.678 6.08657 35.6108 6.01449 35.5781C5.94239 35.5452 5.8431 35.5099 5.79384 35.4994C5.51322 35.4397 5.34496 35.2878 5.2479 35.0065C5.23554 34.9707 5.22556 34.9441 5.22017 34.9189C5.20122 34.8304 5.239 34.7594 5.42974 34.3675C5.60437 34.0087 5.86279 33.4548 6.16379 32.794C6.31523 32.4616 6.52849 31.9483 6.6218 31.6916C6.66947 31.5605 6.7323 31.4024 6.76137 31.3402C6.82123 31.2124 6.94437 30.8691 7.10336 30.3867C7.18721 30.1323 7.20416 30.0353 7.1791 29.953C7.16135 29.8946 7.14931 29.8276 7.15243 29.8041C7.15919 29.7523 7.06677 29.6553 6.69658 29.3256C6.29805 28.9706 6.30379 28.8785 6.7299 28.7879C6.98268 28.7341 7.16719 28.6902 7.37524 28.6342C7.66091 28.5574 7.73878 28.5383 7.77879 28.4872C7.79566 28.4657 7.80579 28.4385 7.82191 28.399C7.85081 28.3282 7.88881 28.2206 7.90635 28.16C7.94787 28.0163 7.98575 27.9758 8.05103 28.0056C8.08318 28.0203 8.13474 28.0062 8.18183 27.97C8.22455 27.937 8.26719 27.9117 8.27659 27.9137C8.30189 27.9191 8.89799 28.1317 8.99325 28.1693C9.07905 28.2031 9.20411 28.1852 9.51685 28.0943C9.60735 28.068 9.76416 28.0224 9.86531 27.993C9.96647 27.9635 10.0537 27.9403 10.0591 27.9414C10.0646 27.9424 10.1414 27.9231 10.2299 27.8983C10.3184 27.8735 10.4281 27.8434 10.4738 27.8314C10.5194 27.8194 10.6306 27.7874 10.7208 27.7603C10.811 27.7331 11.013 27.6774 11.1696 27.6364C11.5634 27.5335 11.6959 27.4974 11.8316 27.4561C11.896 27.4365 12.05 27.3936 12.1739 27.3609C12.4345 27.292 12.8975 27.1683 13.2041 27.0856C13.3213 27.054 13.5027 27.0063 13.6073 26.9796C13.8288 26.9231 14.187 26.8222 14.4624 26.7388C14.5689 26.7066 14.6712 26.6828 14.6898 26.686ZM16.4589 30.2023C16.4158 30.1937 16.335 30.1554 16.2793 30.1171C16.0974 29.9922 15.9603 30.0135 16.0701 30.1495C16.1681 30.2709 16.0707 30.2875 15.9213 30.1748C15.6769 29.9906 15.299 30.0084 15.3647 30.2011C15.3999 30.3043 15.3793 30.3051 15.1675 30.2088C15.1017 30.1788 15.1014 30.1834 15.1589 30.335C15.2096 30.4688 15.2114 30.4923 15.1712 30.492C15.0829 30.4914 14.9799 30.4335 14.9099 30.3452C14.7958 30.2014 14.6969 30.145 14.5796 30.1569C14.49 30.166 14.4709 30.1596 14.373 30.0879C14.2363 29.9877 14.1848 30.0133 14.2817 30.1332C14.3341 30.1983 14.3378 30.2132 14.3103 30.2507C14.2682 30.308 14.3111 30.3639 14.4687 30.457C14.564 30.5133 14.6054 30.551 14.6205 30.5953C14.6596 30.7098 14.5849 30.7202 14.451 30.6192C14.4247 30.5993 14.3697 30.5797 14.3289 30.5756C14.288 30.5715 14.2421 30.5538 14.2267 30.5361C14.168 30.4688 14.1147 30.4861 14.1464 30.5623C14.2361 30.7782 14.2045 30.8031 14.039 30.647C13.8564 30.4748 13.7198 30.4915 13.6701 30.6921C13.6475 30.7834 13.6506 30.7977 13.7041 30.8484C13.8292 30.9668 13.7079 30.9935 13.5193 30.889C13.3918 30.8184 13.3476 30.8796 13.4465 30.9896C13.4887 31.0364 13.5183 31.0909 13.5213 31.1273C13.5252 31.1725 13.5487 31.2043 13.6163 31.2557C13.6657 31.2932 13.7147 31.349 13.7251 31.3796C13.7355 31.4102 13.7811 31.4605 13.8263 31.4914C13.8715 31.5222 13.9211 31.5739 13.9365 31.6062C13.9529 31.6406 13.9927 31.676 14.0328 31.6919C14.0703 31.7067 14.1267 31.7519 14.1581 31.7924C14.1896 31.8329 14.2434 31.8751 14.2777 31.8861C14.3121 31.8972 14.361 31.9264 14.3865 31.9512C14.4465 32.0097 14.5101 32.0215 14.513 31.9747C14.5143 31.9544 14.5272 31.9401 14.5417 31.943C14.5562 31.9458 14.5651 31.9567 14.5615 31.9672C14.5549 31.9866 14.657 32.1523 14.7179 32.2208C14.7394 32.245 14.8198 32.2721 14.9419 32.2962C15.0846 32.3244 15.1824 32.3602 15.3313 32.4386C15.4407 32.4961 15.5798 32.5692 15.6404 32.601C15.7009 32.6327 15.779 32.6741 15.8138 32.6929C15.8486 32.7116 15.9459 32.7636 16.0299 32.8083C16.1165 32.8543 16.1959 32.9123 16.2132 32.9421C16.2631 33.0279 16.4448 33.1166 16.6567 33.1584C16.8742 33.2014 16.8987 33.1836 16.7828 33.0673C16.7034 32.9875 16.7019 32.9838 16.7232 32.9124C16.7444 32.8413 16.8506 32.8157 16.8714 32.8766C16.9149 33.0044 17.2306 33.2241 17.3299 33.1958C17.3616 33.1868 17.4077 33.1896 17.4325 33.2021C17.4572 33.2146 17.5131 33.216 17.5566 33.2053C17.707 33.1682 17.8901 33.1527 17.9764 33.1697C18.0316 33.1806 18.0734 33.1694 18.0916 33.1389C18.1235 33.0855 18.1551 33.053 18.2616 32.9643C18.4996 32.766 18.5029 32.7343 18.3 32.5949C18.1086 32.4636 18.1122 32.3764 18.3074 32.4132C18.6071 32.4696 18.7354 32.2365 18.5274 32.0136C18.4584 31.9397 18.2926 31.8613 18.1416 31.8313C18.0875 31.8206 18.0253 31.796 18.0033 31.7768C17.9813 31.7576 17.9358 31.7402 17.9021 31.7381C17.8083 31.7324 17.9044 32.0299 18.0309 32.1366C18.1612 32.2464 18.1256 32.3266 17.961 32.2941C17.9288 32.2878 17.9003 32.1981 17.9224 32.1729C17.96 32.1298 17.6729 31.938 17.528 31.9094C17.4815 31.9002 17.4325 31.8803 17.4192 31.865C17.3823 31.8227 17.4973 31.751 17.5578 31.7786C17.6104 31.8026 17.6785 31.7577 17.6622 31.7098C17.6575 31.6961 17.6769 31.6895 17.7052 31.6951C17.8582 31.7253 17.8081 31.215 17.644 31.0707C17.5228 30.9641 17.4515 30.8927 17.3987 30.8253C17.3729 30.7922 17.324 30.7563 17.2901 30.7454C17.2562 30.7345 17.2142 30.701 17.1967 30.6709C17.178 30.6386 17.1411 30.6114 17.1067 30.6046C17.0747 30.5983 17.0112 30.5577 16.9655 30.5144C16.9199 30.4711 16.8545 30.4302 16.8204 30.4234C16.7862 30.4167 16.7085 30.3677 16.6478 30.3146C16.5773 30.253 16.5089 30.2123 16.4589 30.2023ZM16.0817 30.4362C16.0825 30.4108 16.09 30.3775 16.0985 30.3622C16.1068 30.3468 16.127 30.3431 16.1432 30.3538C16.1808 30.3785 16.2824 30.6732 16.263 30.701C16.2319 30.7458 16.2407 30.9539 16.2773 31.0416C16.3292 31.1657 15.9968 31.1284 15.8785 30.9969C15.779 30.8863 15.7846 30.831 15.894 30.8433C15.9456 30.849 16.0095 30.8322 16.0361 30.8058C16.0626 30.7794 16.1083 30.7492 16.1376 30.7386C16.19 30.7198 16.1442 30.6389 16.0732 30.6249C16.0281 30.616 15.8068 30.4366 15.7937 30.3983C15.7814 30.362 15.8292 30.374 16.0124 30.4531C16.0621 30.4746 16.0806 30.4701 16.0817 30.4362ZM15.0555 30.8228C14.9035 30.7928 14.7836 30.5949 14.9017 30.5691C15.042 30.5384 15.2475 30.6498 15.2636 30.7653C15.2692 30.8059 15.2884 30.8486 15.3061 30.8603C15.3605 30.8963 15.3675 30.9593 15.3158 30.9482C15.289 30.9425 15.2368 30.9154 15.1999 30.8879C15.163 30.8605 15.098 30.8312 15.0555 30.8228ZM16.387 30.9611C16.3643 30.9086 16.3484 30.8576 16.3518 30.8478C16.3632 30.8145 16.4231 30.8726 16.4341 30.9276C16.4418 30.9656 16.465 30.9904 16.5103 31.009C16.6603 31.0705 16.9144 31.3395 16.8014 31.3172C16.7841 31.3138 16.7432 31.3449 16.7105 31.3864C16.6724 31.4348 16.6335 31.453 16.602 31.4371C16.526 31.3988 16.5286 31.363 16.6083 31.3505C16.7361 31.3304 16.6609 31.1399 16.5139 31.1108C16.4763 31.1034 16.4417 31.0881 16.4369 31.0769C16.4322 31.0657 16.4097 31.0136 16.387 30.9611ZM15.9765 31.3892C15.9697 31.3691 16.0195 31.3359 16.0871 31.3154C16.2525 31.2653 16.3085 31.2791 16.4337 31.4004C16.4914 31.4564 16.5649 31.5154 16.597 31.5316C16.6648 31.5658 16.7059 31.6609 16.6571 31.6705C16.6186 31.6781 16.5467 31.6213 16.5289 31.5693C16.5067 31.5041 16.4312 31.4896 16.3801 31.5407C16.3524 31.5685 16.3344 31.6049 16.3401 31.6216C16.3458 31.6383 16.3404 31.65 16.3283 31.6476C16.2853 31.6391 16.2175 31.5652 16.1967 31.5044C16.1743 31.4385 16.1432 31.4208 16.1122 31.4561C16.0878 31.4841 15.9929 31.4373 15.9765 31.3892ZM14.0223 31.0315C14.1313 31.0545 14.1525 31.0299 14.101 30.9399C14.0285 30.813 14.2594 30.8938 14.3622 31.0313C14.5155 31.2363 14.4661 31.3036 14.2547 31.1778C14.2002 31.1453 14.104 31.1086 14.041 31.0962C13.9616 31.0805 13.9266 31.064 13.927 31.0425C13.9273 31.0254 13.9702 31.0204 14.0223 31.0315ZM14.7219 31.1729C14.776 31.1838 14.8339 31.1714 14.8701 31.1413C14.9734 31.0553 15.3271 31.2003 15.2878 31.3124C15.2601 31.3912 15.2881 31.5068 15.3459 31.5522C15.4123 31.6042 15.4048 31.6397 15.3306 31.6251C15.2945 31.6179 15.2564 31.5853 15.2208 31.5309C15.1497 31.4225 15.0175 31.3531 14.8662 31.3446C14.7302 31.3371 14.5986 31.2889 14.5822 31.2408C14.5632 31.185 14.6274 31.1538 14.7219 31.1729ZM14.9549 31.6092C14.9088 31.5167 14.9088 31.5008 14.9552 31.4855C15.045 31.4558 15.0991 31.4748 15.1428 31.5512C15.2239 31.6931 15.4547 31.7669 15.5538 31.6827C15.5981 31.6451 15.6226 31.642 15.6549 31.6702C15.7287 31.7348 15.7206 31.7659 15.6229 31.792C15.5233 31.8186 15.5101 31.86 15.5959 31.8769C15.6687 31.8913 15.6948 31.9208 15.682 31.9743C15.6743 32.0065 15.651 32.0128 15.6072 31.9947C15.5723 31.9802 15.532 31.9781 15.5177 31.99C15.4895 32.0133 15.4025 31.9792 15.389 31.9395C15.3844 31.926 15.4034 31.9136 15.4313 31.912C15.5166 31.9068 15.4703 31.8574 15.3398 31.8142C15.2717 31.7917 15.1922 31.763 15.163 31.7505C15.0782 31.7141 15.1278 31.8072 15.217 31.852C15.2598 31.8734 15.3012 31.9094 15.3088 31.9318C15.3245 31.9777 15.2842 31.9779 15.2443 31.9321C15.2037 31.8855 15.1089 31.876 15.1239 31.9199C15.1426 31.9747 15.2688 32.0491 15.294 32.0202C15.3075 32.0048 15.3329 32.0098 15.3771 32.0366C15.4121 32.0578 15.4776 32.0763 15.5227 32.0775C15.6105 32.08 15.7194 32.1498 15.7849 32.2455C15.8301 32.3116 15.7679 32.3272 15.6931 32.2685C15.6472 32.2325 15.6314 32.2349 15.5941 32.2836C15.5408 32.3533 15.5142 32.3507 15.4489 32.2698C15.3465 32.143 15.2497 32.0731 15.2068 32.095C15.1581 32.1199 15.1363 32.0961 15.0669 31.9432C15.0323 31.867 14.9885 31.807 14.9453 31.7766C14.9083 31.7504 14.8702 31.7064 14.8608 31.6788C14.8409 31.6207 14.851 31.6202 14.9414 31.6751C15.0042 31.7132 15.0049 31.7097 14.9549 31.6092ZM15.8625 32.0939C15.901 32.1114 15.9276 32.1042 15.9419 32.0723C15.9653 32.0203 16.0895 32.0296 16.1138 32.0851C16.1542 32.1778 16.1758 32.275 16.1581 32.2847C16.0294 32.356 16.3058 32.7348 16.4553 32.6922C16.503 32.6786 16.5301 32.6833 16.5611 32.7104C16.6363 32.7761 16.5722 32.8176 16.4368 32.7909C16.369 32.7775 16.2944 32.774 16.2708 32.7831C16.215 32.8047 15.54 32.5154 15.4085 32.4134C15.3891 32.3985 15.3407 32.3759 15.3009 32.3633C15.2398 32.3439 15.2236 32.3262 15.1973 32.249C15.1569 32.1305 15.2124 32.1224 15.2893 32.2356C15.3636 32.3449 15.5315 32.4071 15.6817 32.381C15.7353 32.3717 15.7993 32.3675 15.8239 32.3718C15.8485 32.3761 15.8786 32.3635 15.8909 32.3439C15.9031 32.3244 15.9382 32.3035 15.9687 32.2976C16.0605 32.2798 16.0137 32.2198 15.8847 32.1898C15.8211 32.1749 15.7587 32.1537 15.7459 32.1426C15.7052 32.107 15.8023 32.0664 15.8625 32.0939ZM26.0811 36.7244C26.0035 36.7282 25.2325 36.18 25.1616 36.0708C25.1084 35.9887 25.0937 35.9833 25.0304 36.0227C24.9641 36.0638 24.99 36.1177 25.207 36.3906C25.4651 36.7152 25.4535 36.7189 24.9447 36.4755C24.6329 36.3264 24.556 36.2896 24.5038 36.294C24.4868 36.2954 24.4723 36.3013 24.4531 36.3091C24.3646 36.345 24.3698 36.3855 24.4668 36.417C24.5926 36.4579 25.2315 36.9799 25.2978 37.096C25.3469 37.1817 25.367 37.1869 25.4688 37.14C25.5658 37.0952 25.5538 37.0346 25.4435 37.0128C25.3579 36.9959 25.0768 36.7987 24.9965 36.6994C24.9267 36.6129 24.9868 36.6329 25.367 36.8227C25.7876 37.0326 25.811 37.0257 25.5939 36.756C25.3873 36.4994 25.3339 36.4177 25.3785 36.4266C25.4322 36.4372 25.8158 36.7286 25.8681 36.7985C25.9254 36.875 25.9701 36.8802 26.0731 36.8222C26.1693 36.7679 26.1732 36.7199 26.0811 36.7244ZM24.8343 37.4548C25.2901 37.4006 25.1168 36.9671 24.5038 36.6282C24.106 36.4084 23.6941 36.5161 23.7955 36.8134C23.8956 37.1069 24.5197 37.4923 24.8343 37.4548ZM24.1671 37.0429C23.9261 36.8631 23.8514 36.6943 23.9889 36.6397C24.1673 36.5689 24.6778 36.8212 24.8852 37.0827C25.1561 37.4243 24.6399 37.3957 24.1671 37.0429ZM23.883 37.2216C23.7863 37.1672 23.6539 37.0945 23.5888 37.06C23.5238 37.0254 23.4244 36.9726 23.368 36.9427C23.1868 36.8466 23.1632 36.9049 23.313 37.0782C23.5929 37.4019 23.8486 37.727 23.8681 37.7841C23.8855 37.8351 23.803 37.8691 23.7486 37.8333C23.5888 37.7281 23.0021 37.2579 22.9446 37.1889C22.8526 37.0785 22.8418 37.0778 22.6618 37.1698C22.578 37.2127 22.4357 37.2808 22.3456 37.3212C22.182 37.3947 22.1658 37.4426 22.2911 37.4831C22.3559 37.504 22.5595 37.6544 22.9401 37.9623C23.0799 38.0755 23.1334 38.132 23.1524 38.1871C23.1847 38.2805 23.2211 38.2865 23.3511 38.2195C23.4719 38.1574 23.4698 38.0939 23.346 38.0695C23.289 38.0582 23.2107 38.0104 23.0901 37.913C22.9945 37.8359 22.826 37.701 22.7157 37.6132C22.4699 37.4179 22.5124 37.2317 22.7903 37.2866C22.8618 37.3007 23.5484 37.8453 23.6117 37.938C23.673 38.0279 23.7273 38.0356 23.8363 37.97C23.8856 37.9403 23.9717 37.8967 24.0276 37.8731C24.1422 37.8247 24.1422 37.7693 24.0278 37.7352C23.9855 37.7226 23.9242 37.6825 23.8916 37.646C23.7919 37.5346 23.5539 37.2417 23.5473 37.2224C23.5266 37.1616 24.2321 37.5402 24.2859 37.6187C24.3302 37.6834 24.405 37.6888 24.4977 37.634C24.5389 37.6097 24.5638 37.5965 24.5567 37.5787C24.5468 37.5539 24.4752 37.5204 24.3001 37.4363C24.1674 37.3725 23.9797 37.2759 23.883 37.2216ZM23.016 38.2287C22.9025 38.2063 22.2142 37.6605 22.1668 37.5554C22.1256 37.464 22.0711 37.45 21.9563 37.5014C21.858 37.5453 21.8624 37.5831 21.9727 37.6442C22.075 37.7009 22.277 38.2323 22.1896 38.2151C22.1101 38.1994 21.6926 37.846 21.6679 37.7734C21.6391 37.689 21.5807 37.6784 21.4568 37.7349C21.343 37.7867 21.345 37.8196 21.4645 37.8634C21.6812 37.9428 22.4095 38.6005 22.3038 38.6214C22.2036 38.6412 22.1278 38.6094 21.6427 38.3437C20.7875 37.8753 20.7791 37.8782 21.2486 38.4761C21.4216 38.6965 21.5571 38.8884 21.5733 38.936C21.6058 39.0313 21.7465 39.1497 21.8518 39.1705C21.9129 39.1826 21.9144 39.1756 21.8693 39.0882C21.8209 38.9942 21.8228 38.9912 21.9786 38.9081C22.2166 38.7811 22.2315 38.7792 22.3639 38.8598C22.5122 38.9502 22.5537 38.9202 22.4459 38.8003C22.417 38.7682 22.398 38.7481 22.3931 38.7315C22.3843 38.7012 22.4222 38.6822 22.5324 38.6223C22.6671 38.549 22.6792 38.5112 22.5746 38.4905C22.4729 38.4705 22.4364 38.4196 22.3193 38.1346C22.2175 37.8867 22.2139 37.8709 22.263 37.8808C22.3293 37.8942 22.7921 38.2806 22.8264 38.3512C22.8658 38.4325 22.9066 38.4385 23.0191 38.3797C23.1374 38.3178 23.1361 38.2524 23.016 38.2287ZM21.6831 38.8304C21.6396 38.8085 21.3188 38.4168 21.3006 38.3635C21.2792 38.3007 21.9074 38.632 21.9545 38.7084C21.9796 38.7492 21.7378 38.8579 21.6831 38.8304Z" fill="black"/>
</g>
<defs>
<clipPath id="clip0_2588_814">
<rect width="48" height="48" fill="white" transform="translate(0.5 0.0585938)"/>
</clipPath>
</defs>
</svg>
