<svg width="49" height="49" viewBox="0 0 49 49" fill="none" xmlns="http://www.w3.org/2000/svg">
<g clip-path="url(#clip0_2588_817)">
<path d="M48.5 48.0588L0.5 0.0585938H48.5V48.0588Z" fill="black"/>
<path d="M8.07284 29.5757C8.26659 29.5677 9.35666 29.6087 9.60734 29.6312C9.6337 29.6336 9.64894 29.616 9.64195 29.589L9.48182 28.97C9.48069 28.9656 9.48015 28.9613 9.48025 28.9574L9.60634 23.8859C9.6065 23.8801 9.60801 23.875 9.61082 23.871L9.89396 23.4653C9.89917 23.4578 9.89979 23.4469 9.89676 23.4348C9.87846 23.3614 9.85311 23.1815 9.86708 22.912C9.88226 22.6195 10.2488 22.489 10.4377 22.4586C10.443 22.4578 10.4488 22.4582 10.4552 22.4597L11.0568 22.6033C11.0711 22.6067 11.0867 22.6157 11.0999 22.6282L11.6732 23.171C11.6858 23.183 11.6953 23.1972 11.6996 23.2107L11.7915 23.501C11.8006 23.5297 11.8317 23.5586 11.861 23.5656L12.0607 23.6133C12.0747 23.6166 12.0899 23.6252 12.1029 23.6373L16.4008 27.6178C16.4139 27.6299 16.4237 27.6445 16.4281 27.6584L16.7057 28.5346C16.71 28.5481 16.7195 28.5623 16.7321 28.5743L17.6096 29.4051C17.6243 29.4191 17.6346 29.436 17.6376 29.4511L17.9687 31.1379C17.9755 31.1727 18.0181 31.21 18.0514 31.2103L19.7761 31.2292C19.7939 31.2294 19.8158 31.2404 19.8332 31.2583C20.2101 31.6442 22.9751 34.5194 23.0071 34.6803C23.0296 34.7929 23.0735 34.9467 23.1014 35.0385C23.1089 35.0633 23.1335 35.0889 23.16 35.0997C23.5324 35.251 24.2252 35.5424 24.3433 35.6313C24.4434 35.7066 24.4873 35.8329 24.5022 35.9169C24.5072 35.9449 24.5339 35.978 24.5651 35.9903C24.8041 36.0848 25.3092 36.2564 25.4615 36.5105C25.6272 36.7871 28.6254 41.1966 29.0549 41.8127C29.4844 42.4289 29.5884 42.5722 29.6003 42.7331C29.6122 42.894 28.0694 44.1259 27.9495 44.1171C27.8536 44.11 25.7727 43.8012 24.7394 43.6469C24.7362 43.6465 24.7336 43.6463 24.7307 43.6465C24.5856 43.6597 23.7999 43.9759 23.2842 43.8137C22.7637 43.65 19.463 42.2303 19.1191 42.0692C18.8508 41.9435 18.2477 41.4449 17.959 41.1935C17.9452 41.1815 17.93 41.1736 17.9159 41.1712C17.3511 41.0762 16.2155 40.8741 16.0213 40.7966C15.8319 40.7209 15.3541 40.5008 15.1142 40.3887C15.0973 40.3808 15.0816 40.3799 15.0715 40.3861L14.6956 40.6185L13.8929 40.9656C13.8795 40.9714 13.8593 40.9669 13.8398 40.9537C13.5742 40.7745 13.09 40.4481 13.0524 40.424C13.0034 40.3925 11.1505 38.4885 11.0397 38.3238C10.9698 38.2198 11.0889 38.1059 11.2005 38.0344C11.2298 38.0156 11.1984 37.9513 11.1488 37.9302C10.7499 37.7614 10.1327 37.4863 10.0634 37.3994C9.96613 37.2774 8.86888 35.9094 8.7378 35.6805C8.60673 35.4517 8.45213 35.3951 8.2645 35.1725C8.07686 34.9499 8.14777 34.9274 8.19922 34.7816C8.23815 34.6713 8.71408 34.232 8.98541 33.992C9.00626 33.9735 8.98411 33.9258 8.94377 33.9021C8.57883 33.6883 7.95956 33.3209 7.84605 33.2355C7.69222 33.1197 7.70658 33.1034 7.66 32.8948C7.61343 32.6861 7.30524 31.4668 7.32718 31.4128C7.34262 31.3747 7.47569 31.3515 7.56362 31.3419C7.58315 31.3398 7.59187 31.3235 7.58563 31.3011C7.57164 31.2509 7.54774 31.1592 7.5162 31.0233C7.46286 30.7933 7.44173 30.7882 7.59798 30.7267C7.71502 30.6807 8.18861 30.5754 8.45393 30.5193C8.48045 30.5137 8.47985 30.4793 8.45321 30.4475C8.3685 30.3464 8.23794 30.1842 8.14406 30.0471C8.07941 29.9527 7.99588 29.5789 8.07284 29.5757Z" fill="black"/>
</g>
<defs>
<clipPath id="clip0_2588_817">
<rect width="48" height="48" fill="white" transform="translate(0.5 0.0585938)"/>
</clipPath>
</defs>
</svg>
