<svg width="49" height="48" viewBox="0 0 49 48" fill="none" xmlns="http://www.w3.org/2000/svg">
<g clip-path="url(#clip0_2588_828)">
<path d="M48.5 48.0002L0.5 0H48.5V48.0002Z" fill="black"/>
<path d="M19.3143 39.413L29.729 45.6309L31.4677 45.0341L30.6097 41.2263L30.8417 41.0826L27.6911 39.2282L24.2634 37.3171L24.2125 37.0917L25.7291 36.7801L25.0178 33.6237L25.3983 33.6496L24.2204 32.8235L24.0919 32.5463L24.1471 32.4978L23.1475 31.4851L22.8816 31.4786L22.2082 31.6199L21.6552 31.4153L20.5886 31.5718L20.4531 30.9706L20.5917 30.9989L20.4985 30.7807L19.9455 30.5761L19.9737 30.7014L20.0869 30.8121L20.2731 31.6388L18.3818 31.9495L18.0452 31.825L17.9661 31.4743L18.0029 31.442L17.9691 31.2917L17.5491 31.0904L17.741 31.9421L16.6833 31.1605L16.5633 30.7257L16.6595 30.7613L16.6087 30.5358L16.1703 30.3507L16.2098 30.526L16.2876 30.5778L16.3666 30.9285L16.0796 30.7304L15.3892 30.7966L15.2876 30.3456L15.4022 30.365L15.3683 30.2147L14.7079 29.9245L14.7418 30.0748L14.8676 30.1443L14.9918 30.6955L14.4713 30.7325L14.3554 30.4141L14.4035 30.4319L14.364 30.2565L13.9977 30.0981L14.0203 30.1983L14.0669 30.3074L14.3322 31.4848L12.9662 30.7039L12.9098 30.4534L12.7542 30.3499L12.4515 30.3757L9.70819 28.7638L9.43723 27.5614L8.98754 27.3261L9.11717 28.2926L6.42193 26.6985L5.9367 26.7945L5.72743 26.6482L5.70485 26.548L4.80692 25.9862L4.25919 26.5873L4.3794 26.6318L4.46408 27.0076L3.96045 27.1198L4.81285 30.9025L9.92485 33.7351L7.51564 34.2905L8.45271 38.449L12.4588 40.8724L18.2564 39.0216L19.3143 39.413Z" fill="black"/>
</g>
<defs>
<clipPath id="clip0_2588_828">
<rect width="48" height="48" fill="white" transform="translate(0.5)"/>
</clipPath>
</defs>
</svg>
