<svg width="49" height="48" viewBox="0 0 49 48" fill="none" xmlns="http://www.w3.org/2000/svg">
<g clip-path="url(#clip0_2588_835)">
<path d="M48.5 48.0002L0.5 0H48.5V48.0002Z" fill="black"/>
<path fill-rule="evenodd" clip-rule="evenodd" d="M5.04993 20.5315C5.0384 20.5877 6.73819 26.2577 8.82709 33.1315C13.6754 49.085 13.4356 48.3175 13.6174 48.4646C13.8919 48.6865 13.7751 48.221 12.4939 43.9839C11.7992 41.6865 10.7863 38.3204 10.2429 36.5036L9.25499 33.2002L9.99037 33.2765C10.9206 33.373 11.989 33.6723 14.8369 34.6343C18.3133 35.8085 18.349 35.8122 21.1541 35.2888C22.1618 35.1007 22.3341 35.1659 22.6187 35.843C22.7377 36.1259 23.2419 37.036 23.7392 37.8655C24.2365 38.6949 24.7636 39.6474 24.9106 39.9822C25.22 40.6867 25.1516 40.6621 26.0455 40.3897C27.8344 39.8445 28.3125 38.3539 27.4124 36.1276C27.384 36.0572 27.4916 36.0286 27.6848 36.0553C28.9801 36.2343 27.1077 33.5532 24.0776 30.8904C23.5192 30.3997 22.7534 29.7267 22.3758 29.3949C18.983 26.4142 17.1243 25.3197 14.7804 24.9222C13.0741 24.6328 12.5589 24.4449 9.36036 22.9463C8.1149 22.3627 6.78013 21.7548 6.39411 21.5952L5.69243 21.3051L5.50306 20.9175C5.31386 20.53 5.08952 20.3389 5.04993 20.5315Z" fill="black"/>
</g>
<defs>
<clipPath id="clip0_2588_835">
<rect width="48" height="48" fill="white" transform="translate(0.5)"/>
</clipPath>
</defs>
</svg>
