<svg width="48" height="48" viewBox="0 0 48 48" fill="none" xmlns="http://www.w3.org/2000/svg">
<g clip-path="url(#clip0_2588_831)">
<path d="M48.5 48.0002L0.5 0H48.5V48.0002Z" fill="black"/>
<path fill-rule="evenodd" clip-rule="evenodd" d="M15.2475 22.808C15.2213 22.8166 15.0555 22.8071 14.879 22.787C14.7024 22.7669 14.5042 22.7545 14.4383 22.7594C14.3726 22.7643 14.0539 22.7467 13.7303 22.7202C12.8947 22.6518 12.6949 22.6835 12.4928 22.9169C12.4529 22.963 12.3663 23.0465 12.3004 23.1024C12.0993 23.2729 12.0642 23.3779 12.0739 23.7799C12.0837 24.1847 11.9859 24.4972 11.8042 24.6407C11.6341 24.7753 11.5531 24.7542 11.2781 24.504C10.7495 24.0229 10.1667 23.9672 10.346 24.4148C10.4767 24.7409 10.9429 25.1055 11.825 25.5714C12.1388 25.737 12.1128 25.756 11.6621 25.6905C11.2825 25.6354 11.2668 25.6353 11.0141 25.6898C10.8717 25.7205 10.6608 25.7519 10.5455 25.7596C10.4124 25.7684 10.3172 25.7924 10.2849 25.8253C10.2362 25.8748 10.1988 25.8886 10.0047 25.9287C9.77255 25.9766 9.57951 26.1397 9.38004 26.4564C9.15531 26.8133 9.14963 26.8673 9.2898 27.3161C9.36008 27.5411 9.37143 27.6322 9.35626 27.8484C9.34592 27.995 9.35853 28.1936 9.38504 28.3021C9.48579 28.7146 9.45365 28.8214 9.15326 29.0722C8.36882 29.7272 9.42546 30.6115 10.6764 30.347C11.0855 30.2604 11.0688 30.2591 11.4256 30.4083C11.5815 30.4736 11.7463 30.5384 11.7917 30.5523C11.9655 30.6056 12.3311 30.8172 12.5269 30.9776C12.6356 31.0668 12.8088 31.2048 12.9117 31.2843C13.4693 31.7152 13.7653 32.1649 13.7448 32.5502C13.7382 32.6746 13.7474 32.8602 13.7653 32.9626C13.8192 33.271 13.8149 33.3383 13.7258 33.5748C13.5899 33.9354 13.5276 33.9947 13.0724 34.1978C12.9106 34.2699 12.3204 34.2231 12.1257 34.1227C11.7117 33.909 11.4621 33.8809 11.4804 34.0501C11.485 34.0935 11.4482 34.1483 11.3888 34.1863C11.3342 34.2212 11.273 34.2761 11.2528 34.3082C11.2054 34.3833 11.1411 34.3733 10.8826 34.2504C10.3604 34.0021 10.2319 34.1656 10.6826 34.5049C11.073 34.7988 11.0822 34.8214 10.9125 35.0703C10.8503 35.1614 10.7908 35.2861 10.7802 35.3474C10.7593 35.4678 10.6989 35.492 10.5338 35.4459C9.60188 35.1857 9.80371 35.801 10.7766 36.1864C11.1179 36.3216 11.1313 36.3444 11.1624 36.8479C11.1807 37.1431 11.1778 37.1485 10.9935 37.1584C10.6071 37.1791 10.4163 37.4408 10.6091 37.6859C10.7811 37.9046 10.935 37.9814 11.5123 38.1363C11.7273 38.194 11.8575 38.718 11.6763 38.796C11.4646 38.887 11.3819 39.0169 11.3909 39.2438C11.3947 39.3393 11.3986 39.4474 11.3996 39.484C11.4034 39.6287 11.7966 40.0002 11.975 40.0278C12.1405 40.0533 12.3344 40.0316 12.5427 39.9641C12.7989 39.8811 12.8359 39.8868 12.9798 40.0309C13.0389 40.0902 13.2547 40.2682 13.4591 40.4265C13.6636 40.5848 13.8787 40.7629 13.9372 40.8222C13.9957 40.8815 14.191 41.0346 14.3713 41.1625C14.5516 41.2903 14.7519 41.4466 14.8164 41.5096C14.9776 41.6671 15.1523 41.7611 15.4866 41.8701C15.6431 41.9212 15.8158 41.9908 15.8702 42.0248C15.9247 42.0588 16.107 42.1655 16.2752 42.2618C16.4434 42.3581 16.645 42.4784 16.7233 42.5291C16.8267 42.5963 16.9403 42.6438 17.1389 42.7032C17.2892 42.7482 17.5139 42.8282 17.6382 42.8809C17.8791 42.9831 18.1276 43.0293 18.4139 43.0251C18.544 43.0231 18.5807 43.0349 18.9537 43.1983C19.5351 43.453 19.8169 43.5194 20.3306 43.5226C20.5502 43.5241 20.8942 43.3207 20.9716 43.1437C21.0869 42.8802 21.1314 42.8739 21.3125 43.0953C21.4542 43.2686 21.5521 43.3211 21.6236 43.262C21.7176 43.1845 21.7876 42.9153 21.7488 42.7808C21.7282 42.7095 21.7287 42.644 21.75 42.6285C21.9162 42.5076 21.97 42.4451 21.9933 42.3458C22.0229 42.2192 22.0897 42.1955 22.3901 42.2047C22.6801 42.2136 22.6313 41.6811 22.3067 41.2934C21.9839 40.9078 21.8952 40.3999 22.1817 40.5774C22.4553 40.747 22.5236 40.6401 22.3172 40.3651C22.2055 40.2165 22.1729 40.1561 22.1304 40.0201C22.0913 39.8949 22.0547 39.823 21.9772 39.72C21.8425 39.541 21.713 39.2291 21.6377 38.9028C21.5862 38.6797 21.5631 38.6216 21.4607 38.4599C21.3043 38.2125 21.3061 38.2107 21.6916 38.2371C22.5065 38.2929 22.4255 37.5397 21.6057 37.439C21.2569 37.3962 21.1071 37.3036 20.9437 37.0298C20.837 36.851 20.837 36.851 20.9347 36.7792C21.1202 36.6428 21.3075 36.3476 21.2767 36.2405C21.1989 35.9703 20.9063 35.8634 20.696 36.0283C20.4941 36.1865 20.4052 36.1799 20.3176 36.0002C20.2763 35.9155 20.222 35.8494 20.1179 35.757C19.9749 35.6301 19.9749 35.6301 19.9946 35.5042C20.04 35.2133 19.736 34.9632 19.4597 35.0643C19.3002 35.1226 19.2828 35.1212 19.1029 35.0355C18.9389 34.9572 18.7682 34.9313 18.3589 34.9228C18.1189 34.9178 18.0511 34.9078 17.8903 34.854C17.7869 34.8194 17.571 34.7506 17.4104 34.7012C17.0651 34.5951 16.9836 34.5578 16.6883 34.3709C16.5654 34.2931 16.329 34.1675 16.1629 34.0918C15.4436 33.7637 15.267 33.589 14.8757 32.8186C14.6395 32.3537 14.6395 32.3537 14.6974 32.1616C14.7292 32.0559 14.7628 31.9086 14.772 31.8343C14.7864 31.7181 14.8113 31.6879 14.9494 31.6186C15.0378 31.5743 15.1625 31.4832 15.2267 31.4161C15.3595 31.2772 15.4473 31.2472 15.6541 31.2698C15.7342 31.2785 15.9345 31.2698 16.0994 31.2504C16.4144 31.2133 16.9544 31.277 17.3159 31.3938C17.386 31.4164 17.5328 31.4532 17.6422 31.4754C17.9505 31.5379 18.0508 31.5821 18.3076 31.7683C18.5963 31.9777 19.1636 32.2856 19.3773 32.349C19.8954 32.5025 20.588 32.3091 20.6915 31.982C20.7241 31.8787 20.7906 31.7635 20.8391 31.7259C20.9218 31.6621 20.9312 31.6246 20.9289 31.37C20.9284 31.3223 20.9912 31.222 21.0745 31.1373C21.4756 30.7299 20.9714 30.1298 20.0071 29.8666C19.8231 29.8163 19.7091 29.7685 19.5163 29.6606C19.378 29.5832 19.1557 29.4818 19.0213 29.4347C18.7395 29.336 18.3801 29.0476 18.6082 29.1032C18.7581 29.1398 19.4588 29.4263 19.8079 29.5939C20.1745 29.7699 20.2433 29.7955 20.4644 29.8382C20.6003 29.8645 20.7551 29.904 20.8086 29.9261C20.862 29.9482 20.9479 29.9717 20.9994 29.9783C21.0509 29.985 21.187 30.0304 21.3018 30.0794C22.0287 30.3891 22.6553 30.4582 22.7912 30.2435C22.8862 30.0937 22.862 29.8868 22.738 29.7892C22.6062 29.6854 22.5292 29.6568 22.2418 29.605C21.7553 29.5174 21.6582 29.4491 21.4211 29.0275C21.2248 28.6786 21.213 28.6215 21.2975 28.4292C21.4303 28.1273 21.4346 27.3852 21.3051 27.1198C21.2719 27.0517 21.2386 26.9289 21.2309 26.8469C21.1839 26.3414 20.735 25.7661 19.8221 25.0417C19.73 24.9686 19.5705 24.8348 19.4678 24.7443C19.2366 24.5408 18.6245 24.0306 18.4905 23.9299C18.436 23.8889 18.3552 23.826 18.3108 23.7902C18.2115 23.7101 17.6006 23.5211 17.3354 23.4886C17.1911 23.4709 17.1219 23.4473 16.9283 23.3501C16.0657 22.9172 15.4851 22.7299 15.2475 22.808ZM5.89178 23.4555C5.76178 23.4632 5.71166 23.5475 5.74527 23.7023C5.77459 23.8374 5.7483 23.8548 5.51318 23.8562C4.87275 23.8599 5.22573 24.5229 6.17603 25.1013C6.48855 25.2915 6.49849 25.3181 6.30356 25.4421C6.11763 25.5604 6.17903 25.823 6.44807 26.0601C6.84948 26.4138 6.91647 26.6291 6.61728 26.604C6.09896 26.5606 6.28281 27.0548 6.99995 27.6328C7.2621 27.844 7.29528 27.891 7.25915 27.9998C7.22581 28.1002 7.33344 28.3208 7.55832 28.6128C7.67402 28.763 7.76202 28.9037 7.83892 29.0613C7.91727 29.222 7.99127 29.3397 8.08487 29.4526C8.27143 29.6776 8.28693 29.7218 8.23536 29.882C8.1383 30.1837 8.52597 30.6922 8.88683 30.7365C9.09475 30.762 9.08592 30.6864 8.8155 30.1247C8.61453 29.7073 8.56816 29.5932 8.56641 29.5117C8.56522 29.4567 8.53622 29.3186 8.502 29.205C8.41828 28.9271 8.46716 28.7589 8.65701 28.6717C9.04061 28.4953 9.1195 28.3884 9.13652 28.022C9.13874 27.9742 9.14647 27.8858 9.15368 27.8254C9.16094 27.7651 9.15208 27.6854 9.13402 27.6483C9.11598 27.6113 9.10793 27.5148 9.11617 27.4339C9.12907 27.3068 9.11539 27.2492 9.01542 27.0098C8.82533 26.5546 8.84979 26.3286 9.10947 26.1403C9.19122 26.081 9.26038 26.0121 9.26315 25.9871C9.28074 25.8292 9.62951 25.6654 9.9724 25.6541C10.0502 25.6515 10.1482 25.6252 10.1901 25.5957C10.257 25.5487 10.2877 25.5466 10.4408 25.5784C10.7466 25.6419 10.7394 25.5612 10.3931 25.0354C10.2127 24.7617 9.84583 24.5004 9.41765 24.3407C9.06066 24.2075 8.90807 24.2384 8.85197 24.4552C8.81621 24.5932 8.80538 24.6007 8.63894 24.6021C8.49767 24.6033 8.36797 24.5464 7.79467 24.2322C7.37263 24.0008 7.08768 23.8899 6.85599 23.8666C6.67794 23.8488 6.67365 23.847 6.54535 23.7371C6.30648 23.5326 6.09938 23.4433 5.89178 23.4555ZM22.5265 30.6053C22.3863 30.6495 22.3863 30.6495 22.177 30.5687C21.9032 30.4628 21.857 30.4711 21.6893 30.6555C21.4331 30.9373 21.4215 30.9591 21.4476 31.1095C21.4735 31.2591 21.4528 31.3003 21.2973 31.408C21.1974 31.4772 21.1348 31.6749 21.1539 31.8605C21.1728 32.0435 21.1161 32.206 21.0115 32.269C20.7406 32.4322 20.5934 32.4983 20.4528 32.5198C20.1128 32.5718 19.9843 32.695 19.9722 32.9804C19.9667 33.1107 19.9474 33.1455 19.8535 33.1953C19.7148 33.2688 19.7028 33.3613 19.7943 33.6508C19.8866 33.9432 19.8844 34.0414 19.7825 34.168C19.677 34.2992 19.7096 34.3976 19.9049 34.5369C20.149 34.711 20.2878 34.6608 20.5237 34.3131C20.6763 34.0882 20.7172 34.0747 20.9632 34.1682C21.0556 34.2034 21.0822 34.2017 21.1659 34.1557C21.2188 34.1265 21.3033 34.1077 21.3536 34.1139C21.6006 34.1442 21.6893 33.9845 21.5557 33.7502C21.4053 33.4864 21.4641 33.4417 21.7491 33.6035C21.8351 33.6523 21.9639 33.7022 22.0636 33.7253C22.1795 33.7522 22.2677 33.7886 22.3452 33.8417C22.7053 34.0884 22.9946 34.0865 23.0908 33.8367C23.1405 33.7072 23.2027 33.6937 23.3787 33.7741C23.5278 33.8422 23.5399 33.8434 23.7798 33.814C24.0857 33.7765 24.1593 33.7061 24.0744 33.5321C24.0255 33.4319 24.0248 33.3661 24.0717 33.2696C24.1573 33.093 24.0137 32.9041 23.5514 32.5845C23.1802 32.328 23.09 32.1198 23.4325 32.31C23.6642 32.4387 23.8657 32.4268 23.9116 32.2818C23.9346 32.2092 23.9844 32.1373 24.0222 32.1222C24.1384 32.0756 24.1245 31.845 23.981 31.4398C23.9093 31.2372 23.6703 31.0364 23.4372 30.9826C23.3219 30.956 23.2894 30.9364 23.1556 30.8121C22.9022 30.577 22.7623 30.531 22.5265 30.6053ZM10.7711 30.4616C10.7442 30.465 10.6766 30.489 10.6209 30.5151C10.5486 30.549 10.4724 30.5568 10.3549 30.5424C10.1512 30.5174 10.0647 30.5569 10.0106 30.6998C9.9752 30.7933 9.94435 30.8126 9.77138 30.8501C9.3579 30.9396 9.31836 31.3481 9.68081 31.7864C9.77481 31.9001 9.83335 31.9994 9.93226 32.2131C10.0843 32.5414 10.1278 32.5869 10.6644 32.9783C10.9544 33.1898 10.9982 33.2143 11.2821 33.324C11.4502 33.389 11.6697 33.487 11.7698 33.5418C12.0848 33.7142 12.5507 33.7881 12.7962 33.7045C12.8975 33.6699 13.0455 33.6313 13.1252 33.6186C13.3695 33.5794 13.5117 33.4003 13.5045 33.1407C13.5031 33.0908 13.5153 33.0152 13.5318 32.9726C13.6346 32.7056 13.4048 31.921 13.1456 31.6543C13.055 31.561 12.7667 31.3333 12.2623 30.9564C12.0173 30.7734 11.7702 30.667 11.5135 30.6341C11.3724 30.6161 11.2629 30.5871 11.1654 30.5421C11.0299 30.4795 10.8777 30.4485 10.7711 30.4616ZM16.7633 31.4534C16.6791 31.4672 16.5587 31.4973 16.4957 31.5205C16.4024 31.5547 16.3542 31.5556 16.2364 31.5256C15.7386 31.3987 15.2984 31.538 15.2504 31.8376C15.2404 31.9007 15.193 31.9816 15.1453 32.0174C14.9804 32.141 15.0384 32.4614 15.2826 32.7752C15.3486 32.8599 15.4196 32.9643 15.4405 33.0071C15.4962 33.1215 15.7989 33.4227 15.9509 33.5152C16.0233 33.5593 16.1494 33.656 16.2311 33.7302C16.6189 34.0823 16.8513 34.1968 17.2705 34.2418C17.5629 34.2733 17.5629 34.2733 17.7697 34.3981C18.0191 34.5485 18.2324 34.5899 18.4458 34.5294C18.5148 34.5099 18.6724 34.4839 18.7959 34.4717C19.0745 34.4443 19.1499 34.4005 19.1877 34.2444C19.204 34.177 19.2651 34.0831 19.3235 34.0358C19.5728 33.8336 19.5288 33.3947 19.2256 33.0595C19.1737 33.0021 19.0651 32.8424 18.9842 32.7047C18.7374 32.2843 18.5073 32.0798 18.0853 31.9057C17.9565 31.8526 17.7553 31.753 17.6381 31.6843C17.2721 31.4699 17.039 31.4083 16.7633 31.4534ZM11.7917 31.4331C12.1413 31.5737 12.394 31.9084 12.3747 32.2054C12.3492 32.5978 12.2528 32.5767 12.0258 32.1293C11.8787 31.8392 11.8333 31.7787 11.6494 31.6276C11.432 31.4489 11.5228 31.3249 11.7917 31.4331ZM16.5597 32.3033C16.657 32.3512 16.6791 32.4109 16.6638 32.5852C16.6517 32.7225 16.6617 32.7596 16.7774 33.0055C16.8932 33.2519 16.9004 33.2788 16.861 33.3163C16.7 33.4693 16.1972 32.9806 16.2016 32.6754C16.2068 32.3111 16.3251 32.1881 16.5597 32.3033ZM10.8706 31.6884C10.9283 31.7402 10.976 31.8187 11.0632 32.0053C11.1485 32.1877 11.208 32.2865 11.2887 32.379C11.5438 32.6718 11.4813 32.7057 11.0898 32.487C10.7876 32.3182 10.7387 32.2554 10.755 32.0573C10.765 31.9353 10.7542 31.8827 10.703 31.8045C10.5904 31.6329 10.7138 31.5474 10.8706 31.6884ZM17.9182 32.6957C18.2564 32.9278 18.2866 32.9646 18.2441 33.092C18.2258 33.1467 18.2065 33.2505 18.2011 33.3225C18.1871 33.5105 17.9497 33.644 17.8491 33.5205C17.8362 33.5046 17.8381 33.4274 17.8533 33.3487C17.8911 33.1532 17.8783 33.115 17.6793 32.8251C17.4085 32.4306 17.4775 32.3933 17.9182 32.6957Z" fill="black"/>
</g>
<defs>
<clipPath id="clip0_2588_831">
<rect width="48" height="48" fill="white" transform="translate(0.5)"/>
</clipPath>
</defs>
</svg>
