<svg width="49" height="49" viewBox="0 0 49 49" fill="none" xmlns="http://www.w3.org/2000/svg">
<g clip-path="url(#clip0_2588_825)">
<path d="M48.5 48.0588L0.5 0.0585938H48.5V48.0588Z" fill="black"/>
<path d="M16.9948 44.2922C16.9623 44.29 16.9424 44.307 16.9424 44.3368L16.942 45.2055C16.9419 45.2634 16.869 45.2654 16.8011 45.2102C14.6023 43.4232 11.4738 42.1558 10.101 41.7186C10.0638 41.7068 10.0253 41.6773 10.0037 41.6407C9.899 41.4634 9.77432 41.1325 9.90799 40.8608C10.0961 40.4786 9.15677 40.3139 7.43131 37.9945C5.70585 35.6751 5.29107 33.3334 5.00526 32.4082C4.71946 31.4831 4.61668 31.2723 4.97904 31.2023C5.3414 31.1324 5.50695 31.0427 5.717 31.4058C5.92705 31.7689 6.53972 32.0542 6.49977 31.543C6.45983 31.0319 6.94265 31.4575 8.32455 32.0556C9.43007 32.534 13.0663 34.3497 14.7463 35.1978C15.0891 35.3814 15.1783 35.3565 12.7922 33.7875C10.4407 32.2413 8.51353 29.5526 8.11891 28.7863C8.10759 28.7643 8.10481 28.7451 8.10903 28.7291L8.19242 28.4128C8.20401 28.3688 8.26884 28.3727 8.32872 28.4206C8.66091 28.6862 9.27131 29.1576 9.75279 29.4731C10.4325 29.9186 10.7546 29.8563 12.0559 30.4699C13.3573 31.0836 13.4378 31.068 14.2028 30.9203C14.9678 30.7725 18.0947 30.3416 19.5979 29.8783C20.7961 29.509 21.3277 27.8066 21.4455 26.9927C21.4464 26.9867 21.4481 26.9815 21.4509 26.9768L21.6318 26.6677C21.654 26.6298 21.7259 26.6469 21.7748 26.7072C22.4887 27.5868 23.9963 30.7167 24.3025 32.1412C24.5558 33.32 24.2678 34.8908 24.085 35.5584C24.0799 35.5771 24.086 35.602 24.1006 35.6279C24.9632 37.1559 23.5269 38.0019 22.671 38.3958C22.1439 38.6384 21.1495 38.5326 20.4144 38.3889C20.3068 38.3678 20.3326 38.5589 20.4456 38.6384C21.0534 39.0663 21.5194 39.5416 21.7328 39.7975C21.7549 39.824 21.7668 39.8514 21.7661 39.8742C21.7325 41.0349 20.5232 43.026 19.8011 43.7363C19.2315 44.2966 17.7265 44.3417 16.9948 44.2922Z" fill="black"/>
</g>
<defs>
<clipPath id="clip0_2588_825">
<rect width="48" height="48" fill="white" transform="translate(0.5 0.0585938)"/>
</clipPath>
</defs>
</svg>
