<svg width="49" height="48" viewBox="0 0 49 48" fill="none" xmlns="http://www.w3.org/2000/svg">
<g clip-path="url(#clip0_2588_838)">
<path d="M48.5 48.0002L0.5 0H48.5V48.0002Z" fill="black"/>
<path fill-rule="evenodd" clip-rule="evenodd" d="M9.59744 40.544C9.57088 40.4594 9.53449 40.3699 9.48541 40.2784C9.39519 40.1103 9.33155 40.0047 9.27 39.9025C9.16678 39.7312 9.06944 39.5697 8.86254 39.1395C8.77503 38.9575 8.64388 38.6665 8.48581 38.3158C8.04726 37.3428 7.40156 35.9103 6.90617 35.0715C6.78061 34.8589 6.64844 34.6308 6.51376 34.3983C5.92555 33.3831 5.28948 32.2852 4.9472 32.0394L4.21198 31.5116C4.14235 31.4616 4.07985 31.401 4.03141 31.3345C3.82134 31.0463 3.4602 30.5246 3.25358 30.1318C2.96127 29.576 2.40308 28.103 2.42953 27.7415C2.45598 27.38 3.59219 27.5039 4.17916 27.6832C4.43492 27.7613 4.61091 27.7427 4.81043 27.7217C5.06881 27.6944 5.36665 27.663 5.92827 27.832C5.98413 27.8488 6.05214 27.8692 6.13095 27.8928C7.45629 28.2905 11.8376 29.6049 12.9331 30.1628C13.5287 30.4662 13.8387 30.6829 14.0666 30.8422C14.2828 30.9933 14.4251 31.0929 14.6673 31.1657C14.892 31.2333 15.3354 31.3309 15.8035 31.434C16.372 31.5592 16.9769 31.6924 17.2708 31.7895C17.627 31.9073 18.313 32.2364 18.7641 32.4626C18.9143 32.5379 19.0464 32.6703 19.1134 32.8097L19.2543 33.1026L19.6639 32.6047C20.1561 32.0064 21.925 31.0372 22.6619 31.2242C23.0876 31.3322 23.3455 31.2828 23.5472 31.2441C23.6945 31.2159 23.8118 31.1934 23.9425 31.2424C24.2518 31.3585 31.36 38.1712 32.079 38.9704C32.2108 39.1169 32.3547 39.2784 32.5053 39.4475C33.1766 40.2012 33.9823 41.1057 34.4509 41.5007C34.715 41.7234 34.9498 41.9426 35.1259 42.1153C35.2951 42.2812 35.3448 42.4812 35.2557 42.5895L34.8202 43.1189C34.7907 43.1548 34.7475 43.178 34.6951 43.1886C34.5612 43.2156 34.3804 43.2598 34.3497 43.2971L34.0218 43.6957C33.9499 43.7831 33.8011 43.7931 33.6375 43.7215L33.3577 43.5989C33.2499 43.5517 33.1463 43.5392 33.0673 43.5637L32.7051 43.6762C32.6663 43.6882 32.6344 43.7089 32.6111 43.7372L32.4254 43.963C32.3862 44.0107 32.3232 44.0363 32.245 44.0363L30.5852 44.0374C30.4821 44.0374 30.3581 43.9845 30.2525 43.8955C30.1226 43.786 29.9673 43.7329 29.8588 43.7624C29.5263 43.8526 29.053 43.9941 28.9275 44.0811C28.8091 44.1631 28.6542 44.2856 28.5513 44.3694C28.5048 44.4073 28.4384 44.4241 28.3598 44.4172L27.9352 44.3799C27.7648 44.3649 27.5574 44.245 27.4148 44.0842C27.1393 43.7735 26.6445 43.2224 26.0314 42.5396C25.1376 41.5442 23.9924 40.2688 22.9092 39.0503C22.9438 39.1787 22.9621 39.2679 22.9692 39.3239C22.9738 39.3599 22.966 39.3898 22.9526 39.4163L22.1128 41.0768C21.8641 41.5686 21.7572 41.6319 21.6173 41.7148C21.5551 41.7516 21.4864 41.7924 21.3957 41.8764C21.2015 42.0565 20.913 42.1751 20.7295 42.2318C20.665 42.2517 20.5819 42.242 20.4945 42.2106C19.8565 41.9812 18.7317 41.6265 18.4462 41.7306C18.0628 41.8704 16.7471 41.9981 16.3257 42.0069C15.9043 42.0157 12.9045 41.557 11.9218 41.3357C11.3099 41.198 10.9778 41.1688 10.8304 41.1737C10.7726 41.1756 10.738 41.208 10.7063 41.2419C10.6669 41.2841 10.6059 41.3221 10.5299 41.305C10.4892 41.2958 10.3946 41.2729 10.2788 41.2444C9.97946 41.1708 9.6851 40.8232 9.59744 40.544Z" fill="black"/>
</g>
<defs>
<clipPath id="clip0_2588_838">
<rect width="48" height="48" fill="white" transform="translate(0.5)"/>
</clipPath>
</defs>
</svg>
